<svg width="121" height="40" viewBox="0 0 121 40" fill="none" xmlns="http://www.w3.org/2000/svg">
<rect x="0.833496" y="0.5" width="119" height="39" rx="7.5" fill="black"/>
<rect x="0.833496" y="0.5" width="119" height="39" rx="7.5" stroke="#A6A6A6"/>
<path d="M25.1035 20.3007C25.1142 19.4661 25.3359 18.6477 25.7479 17.9218C26.16 17.1958 26.7489 16.5859 27.46 16.1487C27.0083 15.5035 26.4123 14.9726 25.7195 14.598C25.0267 14.2235 24.2561 14.0156 23.4689 13.991C21.7896 13.8147 20.1617 14.9958 19.306 14.9958C18.4337 14.9958 17.1162 14.0085 15.6975 14.0377C14.7798 14.0673 13.8854 14.3342 13.1016 14.8123C12.3177 15.2903 11.671 15.9633 11.2245 16.7656C9.29054 20.114 10.7331 25.035 12.5857 27.7416C13.5126 29.067 14.5959 30.5474 16.0134 30.4949C17.4004 30.4374 17.9185 29.6105 19.5928 29.6105C21.2515 29.6105 21.7376 30.4949 23.1838 30.4616C24.6722 30.4374 25.6099 29.1303 26.5043 27.7924C27.1703 26.8481 27.6827 25.8043 28.0227 24.6999C27.158 24.3342 26.4201 23.722 25.901 22.9397C25.3818 22.1574 25.1045 21.2396 25.1035 20.3007Z" fill="white"/>
<path d="M22.3718 12.211C23.1834 11.2367 23.5832 9.98457 23.4864 8.72034C22.2465 8.85056 21.1013 9.44312 20.2788 10.3799C19.8766 10.8376 19.5686 11.37 19.3724 11.9468C19.1761 12.5236 19.0955 13.1334 19.1351 13.7413C19.7552 13.7477 20.3687 13.6133 20.9294 13.3482C21.49 13.0831 21.9832 12.6943 22.3718 12.211Z" fill="white"/>
<path d="M42.636 27.1397H37.9026L36.7659 30.4961H34.761L39.2444 18.0781H41.3274L45.8108 30.4961H43.7717L42.636 27.1397ZM38.3928 25.5908H42.1448L40.2952 20.1436H40.2435L38.3928 25.5908Z" fill="white"/>
<path d="M55.4934 25.9697C55.4934 28.7832 53.9876 30.5908 51.7151 30.5908C51.1394 30.6209 50.5669 30.4883 50.0631 30.2082C49.5594 29.9281 49.1446 29.5117 48.8665 29.0068H48.8235V33.4912H46.9651V21.4424H48.7639V22.9483H48.7981C49.0891 22.4458 49.5108 22.0316 50.0184 21.7498C50.526 21.4679 51.1006 21.3289 51.6809 21.3477C53.9787 21.3477 55.4934 23.1641 55.4934 25.9697ZM53.5833 25.9697C53.5833 24.1367 52.636 22.9317 51.1907 22.9317C49.7708 22.9317 48.8157 24.1621 48.8157 25.9697C48.8157 27.794 49.7708 29.0156 51.1907 29.0156C52.636 29.0156 53.5833 27.8194 53.5833 25.9697Z" fill="white"/>
<path d="M65.4582 25.9697C65.4582 28.7832 63.9524 30.5908 61.6799 30.5908C61.1043 30.6209 60.5318 30.4883 60.028 30.2082C59.5242 29.9281 59.1095 29.5117 58.8313 29.0068H58.7883V33.4912H56.9299V21.4424H58.7287V22.9483H58.7629C59.0539 22.4458 59.4756 22.0316 59.9832 21.7498C60.4909 21.4679 61.0654 21.329 61.6457 21.3477C63.9436 21.3477 65.4582 23.1641 65.4582 25.9697ZM63.5481 25.9697C63.5481 24.1367 62.6008 22.9317 61.1555 22.9317C59.7356 22.9317 58.7805 24.1621 58.7805 25.9697C58.7805 27.794 59.7356 29.0156 61.1555 29.0156C62.6008 29.0156 63.5481 27.8194 63.5481 25.9697Z" fill="white"/>
<path d="M72.0442 27.0361C72.1819 28.2676 73.3782 29.0761 75.0129 29.0761C76.5794 29.0761 77.7063 28.2676 77.7063 27.1572C77.7063 26.1933 77.0266 25.6162 75.4172 25.2207L73.8079 24.833C71.5276 24.2822 70.469 23.2158 70.469 21.4853C70.469 19.3427 72.3362 17.8711 74.9876 17.8711C77.6116 17.8711 79.4104 19.3427 79.471 21.4853H77.595C77.4827 20.2461 76.4582 19.498 74.9612 19.498C73.4641 19.498 72.4397 20.2549 72.4397 21.3564C72.4397 22.2343 73.094 22.7509 74.6946 23.1464L76.0627 23.4824C78.6106 24.0849 79.6692 25.1084 79.6692 26.9247C79.6692 29.248 77.8186 30.7031 74.8752 30.7031C72.1213 30.7031 70.2619 29.2822 70.1418 27.0361L72.0442 27.0361Z" fill="white"/>
<path d="M83.6799 19.2998V21.4424H85.4016V22.9141H83.6799V27.9053C83.6799 28.6807 84.0247 29.042 84.7815 29.042C84.9859 29.0384 85.1899 29.0241 85.3928 28.999V30.4619C85.0526 30.5255 84.7067 30.5543 84.3606 30.5478C82.5276 30.5478 81.8127 29.8594 81.8127 28.1035V22.9141H80.4963V21.4424H81.8127V19.2998H83.6799Z" fill="white"/>
<path d="M86.3987 25.9697C86.3987 23.1211 88.0765 21.3311 90.6927 21.3311C93.3177 21.3311 94.9876 23.1211 94.9876 25.9697C94.9876 28.8262 93.3265 30.6084 90.6927 30.6084C88.0598 30.6084 86.3987 28.8262 86.3987 25.9697ZM93.094 25.9697C93.094 24.0156 92.1985 22.8623 90.6927 22.8623C89.1868 22.8623 88.2923 24.0244 88.2923 25.9697C88.2923 27.9317 89.1868 29.0762 90.6927 29.0762C92.1985 29.0762 93.094 27.9317 93.094 25.9697Z" fill="white"/>
<path d="M96.5198 21.4424H98.2922V22.9834H98.3352C98.4552 22.5021 98.7371 22.0768 99.1337 21.7789C99.5303 21.481 100.017 21.3287 100.513 21.3477C100.727 21.3469 100.941 21.3702 101.15 21.417V23.1553C100.879 23.0727 100.597 23.0347 100.315 23.043C100.045 23.032 99.7756 23.0796 99.5257 23.1825C99.2759 23.2854 99.0513 23.4411 98.8673 23.639C98.6833 23.8369 98.5443 24.0723 98.4599 24.3289C98.3755 24.5856 98.3476 24.8575 98.3782 25.126V30.4961H96.5198L96.5198 21.4424Z" fill="white"/>
<path d="M109.718 27.8369C109.468 29.4805 107.867 30.6084 105.82 30.6084C103.186 30.6084 101.551 28.8438 101.551 26.0127C101.551 23.1729 103.195 21.3311 105.741 21.3311C108.246 21.3311 109.822 23.0518 109.822 25.7969V26.4336H103.427V26.5459C103.398 26.8791 103.439 27.2148 103.549 27.5306C103.66 27.8464 103.836 28.1352 104.066 28.3778C104.296 28.6203 104.576 28.8111 104.885 28.9374C105.195 29.0637 105.528 29.1227 105.863 29.1104C106.302 29.1515 106.742 29.0498 107.119 28.8203C107.496 28.5909 107.788 28.246 107.953 27.8369L109.718 27.8369ZM103.436 25.1348H107.962C107.979 24.8352 107.933 24.5354 107.829 24.2542C107.724 23.9729 107.562 23.7164 107.354 23.5006C107.145 23.2849 106.894 23.1145 106.617 23.0003C106.34 22.8861 106.041 22.8305 105.741 22.8369C105.439 22.8351 105.139 22.8933 104.859 23.008C104.579 23.1227 104.324 23.2918 104.11 23.5054C103.895 23.7191 103.726 23.9731 103.61 24.2527C103.494 24.5324 103.435 24.8321 103.436 25.1348Z" fill="white"/>
<path d="M38.1599 8.73101C38.5495 8.70305 38.9405 8.76191 39.3046 8.90334C39.6687 9.04478 39.9969 9.26526 40.2655 9.54888C40.5341 9.83251 40.7364 10.1722 40.8578 10.5435C40.9792 10.9147 41.0167 11.3083 40.9675 11.6959C40.9675 13.6021 39.9373 14.6979 38.1599 14.6979H36.0046V8.73101H38.1599ZM36.9314 13.854H38.0564C38.3348 13.8707 38.6134 13.825 38.8719 13.7204C39.1305 13.6158 39.3624 13.4548 39.5509 13.2493C39.7394 13.0437 39.8797 12.7987 39.9616 12.5321C40.0434 12.2655 40.0648 11.9839 40.0242 11.708C40.0619 11.4332 40.0383 11.1534 39.9552 10.8887C39.8721 10.6241 39.7315 10.3811 39.5434 10.1771C39.3553 9.97321 39.1245 9.81341 38.8674 9.70917C38.6103 9.60493 38.3334 9.55885 38.0564 9.57422H36.9314V13.854Z" fill="white"/>
<path d="M42.0144 12.4444C41.9861 12.1484 42.0199 11.8499 42.1138 11.5678C42.2076 11.2857 42.3594 11.0264 42.5593 10.8064C42.7593 10.5864 43.003 10.4107 43.2748 10.2904C43.5467 10.1701 43.8407 10.108 44.1379 10.108C44.4352 10.108 44.7292 10.1701 45.001 10.2904C45.2729 10.4107 45.5166 10.5864 45.7165 10.8064C45.9165 11.0264 46.0682 11.2857 46.1621 11.5678C46.2559 11.8499 46.2898 12.1484 46.2615 12.4444C46.2903 12.7406 46.2569 13.0396 46.1633 13.3221C46.0697 13.6046 45.918 13.8644 45.718 14.0848C45.518 14.3053 45.2741 14.4814 45.002 14.6019C44.7299 14.7225 44.4356 14.7847 44.1379 14.7847C43.8403 14.7847 43.546 14.7225 43.2739 14.6019C43.0017 14.4814 42.7578 14.3053 42.5578 14.0848C42.3579 13.8644 42.2062 13.6046 42.1126 13.3221C42.019 13.0396 41.9856 12.7406 42.0144 12.4444ZM45.3474 12.4444C45.3474 11.4683 44.9089 10.8975 44.1394 10.8975C43.3669 10.8975 42.9324 11.4683 42.9324 12.4444C42.9324 13.4283 43.367 13.9947 44.1394 13.9947C44.9089 13.9946 45.3474 13.4243 45.3474 12.4444Z" fill="white"/>
<path d="M51.907 14.6978H50.9851L50.0545 11.3814H49.9841L49.0574 14.6978H48.1443L46.9031 10.1948H47.8045L48.6111 13.6308H48.6775L49.6033 10.1948H50.4558L51.3816 13.6308H51.4519L52.2546 10.1948H53.1433L51.907 14.6978Z" fill="white"/>
<path d="M54.1873 10.1948H55.0427V10.9102H55.1091C55.2218 10.6532 55.4118 10.4379 55.6527 10.2941C55.8935 10.1503 56.1733 10.0852 56.4529 10.1079C56.672 10.0914 56.892 10.1245 57.0966 10.2046C57.3012 10.2847 57.4851 10.4098 57.6348 10.5706C57.7845 10.7315 57.8961 10.9239 57.9613 11.1337C58.0265 11.3436 58.0436 11.5654 58.0115 11.7827V14.6977H57.1228V12.0059C57.1228 11.2822 56.8084 10.9224 56.1511 10.9224C56.0024 10.9154 55.8539 10.9408 55.7158 10.9966C55.5778 11.0524 55.4534 11.1374 55.3513 11.2458C55.2492 11.3542 55.1717 11.4834 55.1241 11.6245C55.0766 11.7657 55.0602 11.9154 55.0759 12.0635V14.6978H54.1873L54.1873 10.1948Z" fill="white"/>
<path d="M59.4275 8.43701H60.3162V14.6978H59.4275V8.43701Z" fill="white"/>
<path d="M61.5515 12.4444C61.5232 12.1484 61.5571 11.8498 61.651 11.5677C61.7448 11.2857 61.8966 11.0263 62.0966 10.8063C62.2965 10.5863 62.5403 10.4106 62.8121 10.2903C63.084 10.17 63.378 10.1079 63.6753 10.1079C63.9726 10.1079 64.2666 10.17 64.5385 10.2903C64.8103 10.4106 65.0541 10.5863 65.254 10.8063C65.454 11.0263 65.6058 11.2857 65.6996 11.5677C65.7935 11.8498 65.8274 12.1484 65.7991 12.4444C65.8279 12.7406 65.7944 13.0396 65.7008 13.3221C65.6072 13.6046 65.4555 13.8644 65.2555 14.0848C65.0554 14.3052 64.8115 14.4814 64.5394 14.6019C64.2673 14.7224 63.9729 14.7847 63.6753 14.7847C63.3777 14.7847 63.0833 14.7224 62.8112 14.6019C62.5391 14.4814 62.2951 14.3052 62.0951 14.0848C61.8951 13.8644 61.7434 13.6046 61.6498 13.3221C61.5562 13.0396 61.5227 12.7406 61.5515 12.4444ZM64.8845 12.4444C64.8845 11.4683 64.446 10.8975 63.6765 10.8975C62.904 10.8975 62.4695 11.4683 62.4695 12.4444C62.4695 13.4283 62.9041 13.9947 63.6765 13.9947C64.446 13.9946 64.8845 13.4243 64.8845 12.4444Z" fill="white"/>
<path d="M66.7346 13.4243C66.7346 12.6138 67.3381 12.1465 68.4094 12.0801L69.6292 12.0098V11.6211C69.6292 11.1455 69.3147 10.877 68.7073 10.877C68.2112 10.877 67.8674 11.0591 67.7688 11.3775H66.9085C66.9993 10.604 67.7268 10.1079 68.7483 10.1079C69.8772 10.1079 70.5139 10.6699 70.5139 11.6211V14.6978H69.6585V14.065H69.5881C69.4454 14.292 69.245 14.477 69.0074 14.6012C68.7698 14.7254 68.5034 14.7843 68.2356 14.772C68.0466 14.7916 67.8555 14.7715 67.6747 14.7128C67.494 14.6541 67.3275 14.5581 67.1861 14.4312C67.0447 14.3042 66.9315 14.149 66.8537 13.9756C66.7759 13.8022 66.7354 13.6144 66.7346 13.4243ZM69.6292 13.0396V12.6631L68.5295 12.7334C67.9094 12.7749 67.6282 12.9859 67.6282 13.3828C67.6282 13.7881 67.9797 14.0239 68.4632 14.0239C68.6048 14.0383 68.7479 14.024 68.8839 13.9819C69.0199 13.9398 69.1461 13.8708 69.2548 13.7789C69.3636 13.6871 69.4528 13.5743 69.5171 13.4473C69.5814 13.3203 69.6195 13.1816 69.6292 13.0396Z" fill="white"/>
<path d="M71.6819 12.4444C71.6819 11.0215 72.4133 10.1201 73.551 10.1201C73.8324 10.1072 74.1117 10.1746 74.3563 10.3145C74.6008 10.4544 74.8004 10.661 74.9319 10.9101H74.9983V8.43701H75.887V14.6978H75.0354V13.9863H74.9651C74.8235 14.2338 74.6169 14.4378 74.3676 14.5763C74.1184 14.7148 73.836 14.7825 73.551 14.772C72.4055 14.772 71.6819 13.8706 71.6819 12.4444ZM72.5999 12.4444C72.5999 13.3994 73.0501 13.9741 73.803 13.9741C74.552 13.9741 75.0149 13.3911 75.0149 12.4483C75.0149 11.5098 74.5471 10.9185 73.803 10.9185C73.0549 10.9185 72.5999 11.4971 72.5999 12.4444Z" fill="white"/>
<path d="M79.5637 12.4444C79.5354 12.1484 79.5693 11.8499 79.6631 11.5678C79.7569 11.2857 79.9087 11.0264 80.1086 10.8064C80.3086 10.5864 80.5523 10.4107 80.8241 10.2904C81.096 10.1701 81.39 10.108 81.6873 10.108C81.9845 10.108 82.2785 10.1701 82.5504 10.2904C82.8222 10.4107 83.0659 10.5864 83.2659 10.8064C83.4658 11.0264 83.6176 11.2857 83.7114 11.5678C83.8052 11.8499 83.8391 12.1484 83.8108 12.4444C83.8396 12.7406 83.8062 13.0396 83.7126 13.3221C83.619 13.6046 83.4673 13.8644 83.2673 14.0848C83.0674 14.3053 82.8235 14.4814 82.5513 14.6019C82.2792 14.7225 81.9849 14.7847 81.6873 14.7847C81.3896 14.7847 81.0953 14.7225 80.8232 14.6019C80.551 14.4814 80.3072 14.3053 80.1072 14.0848C79.9072 13.8644 79.7555 13.6046 79.6619 13.3221C79.5683 13.0396 79.5349 12.7406 79.5637 12.4444ZM82.8967 12.4444C82.8967 11.4683 82.4582 10.8975 81.6887 10.8975C80.9163 10.8975 80.4817 11.4683 80.4817 12.4444C80.4817 13.4283 80.9163 13.9947 81.6887 13.9947C82.4583 13.9946 82.8967 13.4243 82.8967 12.4444Z" fill="white"/>
<path d="M85.0032 10.1948H85.8586V10.9102H85.9251C86.0377 10.6532 86.2277 10.4379 86.4686 10.2941C86.7095 10.1503 86.9892 10.0852 87.2688 10.1079C87.4879 10.0914 87.7079 10.1245 87.9125 10.2046C88.1171 10.2847 88.3011 10.4098 88.4507 10.5706C88.6004 10.7315 88.712 10.9239 88.7772 11.1337C88.8424 11.3436 88.8596 11.5654 88.8274 11.7827V14.6977H87.9387V12.0059C87.9387 11.2822 87.6243 10.9224 86.967 10.9224C86.8183 10.9154 86.6698 10.9408 86.5317 10.9966C86.3937 11.0524 86.2693 11.1374 86.1672 11.2458C86.0651 11.3542 85.9876 11.4834 85.9401 11.6245C85.8925 11.7657 85.8761 11.9154 85.8918 12.0635V14.6978H85.0032V10.1948Z" fill="white"/>
<path d="M93.8489 9.07374V10.2153H94.8245V10.9639H93.8489V13.2793C93.8489 13.751 94.0432 13.9575 94.4856 13.9575C94.5989 13.9572 94.712 13.9503 94.8245 13.937V14.6773C94.6649 14.7058 94.5032 14.721 94.3411 14.7227C93.3528 14.7227 92.9592 14.375 92.9592 13.5068V10.9638H92.2444V10.2153H92.9592V9.07374H93.8489Z" fill="white"/>
<path d="M96.0383 8.43701H96.9192V10.9185H96.9895C97.1076 10.6591 97.3029 10.4425 97.5486 10.2982C97.7943 10.1539 98.0785 10.0888 98.3625 10.1118C98.5805 10.1 98.7984 10.1364 99.0006 10.2184C99.2029 10.3004 99.3846 10.4261 99.5327 10.5864C99.6808 10.7468 99.7917 10.9378 99.8575 11.146C99.9233 11.3541 99.9423 11.5742 99.9133 11.7905V14.6978H99.0237V12.0098C99.0237 11.2905 98.6887 10.9263 98.0608 10.9263C97.9081 10.9137 97.7545 10.9347 97.6107 10.9878C97.4669 11.0408 97.3365 11.1247 97.2285 11.2334C97.1205 11.3421 97.0375 11.4732 96.9855 11.6173C96.9334 11.7614 96.9135 11.9152 96.927 12.0679V14.6977H96.0384L96.0383 8.43701Z" fill="white"/>
<path d="M105.095 13.4819C104.974 13.8935 104.713 14.2495 104.356 14.4876C103.999 14.7258 103.57 14.8309 103.144 14.7847C102.847 14.7925 102.552 14.7357 102.28 14.6182C102.007 14.5006 101.764 14.3252 101.566 14.1041C101.368 13.8829 101.22 13.6214 101.134 13.3376C101.047 13.0537 101.023 12.7544 101.064 12.4605C101.024 12.1656 101.049 11.8656 101.135 11.581C101.222 11.2963 101.368 11.0335 101.565 10.8105C101.762 10.5874 102.004 10.4092 102.276 10.288C102.548 10.1668 102.842 10.1054 103.14 10.1079C104.393 10.1079 105.149 10.9639 105.149 12.3779V12.688H101.969V12.7378C101.955 12.9031 101.976 13.0694 102.03 13.2261C102.084 13.3829 102.17 13.5266 102.283 13.6481C102.396 13.7695 102.533 13.866 102.686 13.9314C102.838 13.9968 103.002 14.0297 103.168 14.0278C103.381 14.0533 103.596 14.0151 103.787 13.9178C103.978 13.8206 104.135 13.6689 104.24 13.4819L105.095 13.4819ZM101.969 12.0308H104.243C104.255 11.8796 104.234 11.7278 104.183 11.5851C104.132 11.4424 104.052 11.3119 103.948 11.2021C103.843 11.0922 103.717 11.0054 103.577 10.9472C103.437 10.8891 103.286 10.8608 103.135 10.8643C102.981 10.8623 102.829 10.8912 102.686 10.9491C102.544 11.0071 102.415 11.0929 102.306 11.2017C102.197 11.3104 102.112 11.4397 102.054 11.5821C101.996 11.7245 101.967 11.8771 101.969 12.0308Z" fill="white"/>
</svg>
