<svg width="21" height="20" viewBox="0 0 21 20" fill="none" xmlns="http://www.w3.org/2000/svg">
<path d="M14.2543 8.26256C14.0924 6.96927 14.2779 5.65621 14.7918 4.4584C14.8668 4.3084 15.0085 4.1334 14.8668 3.9709C14.7251 3.8084 14.5293 3.9209 14.3626 3.9709C13.9329 4.09589 13.5338 4.30851 13.1903 4.59535C12.8468 4.88219 12.5664 5.23704 12.3668 5.63756C12.2543 5.8334 12.1751 6.02923 11.871 5.98756C10.8444 5.85361 9.80605 5.83404 8.77513 5.92923C8.00201 5.97583 7.24707 6.18301 6.55846 6.53756C5.49667 7.12203 4.66398 8.04871 4.19596 9.16673C4.17325 9.11173 4.15648 9.05446 4.14596 8.99589C4.0293 8.45423 3.7293 8.16256 3.25846 8.2334H3.25013C3.14269 8.24692 3.03915 8.28223 2.94583 8.33716C2.85251 8.3921 2.77138 8.46549 2.70742 8.55286C2.64345 8.64024 2.59798 8.73974 2.5738 8.8453C2.54962 8.95085 2.54724 9.06022 2.5668 9.16673C2.54165 9.6278 2.62858 10.0881 2.82014 10.5082C3.01171 10.9284 3.30222 11.2959 3.6668 11.5792C3.79954 11.6701 3.8944 11.8065 3.93346 11.9626C4.17837 12.9935 4.74449 13.92 5.55013 14.6084C5.69577 14.7276 5.80992 14.8808 5.88257 15.0544C5.95522 15.228 5.98414 15.4168 5.9668 15.6042C5.8543 16.7376 6.3043 17.3126 7.53763 17.4792C7.63239 17.5016 7.72839 17.5183 7.82513 17.5292C8.65846 17.7001 8.5668 17.6959 8.72096 16.9376C8.82513 16.4292 9.0293 16.2792 9.5543 16.3584C9.97943 16.4167 10.4088 16.4376 10.8376 16.4209C11.8668 16.4209 11.871 16.4209 12.1501 17.3834C12.2001 17.5584 12.2376 17.7501 12.4835 17.7042C13.0539 17.6502 13.6144 17.5199 14.1501 17.3167C14.3534 17.2479 14.5311 17.1191 14.6598 16.9473C14.7885 16.7755 14.8621 16.5687 14.871 16.3542C14.7835 15.4667 15.071 15.1042 15.6043 14.4417C15.6793 14.3542 15.8376 14.2001 15.9251 14.0751C16.0827 13.8247 16.2982 13.616 16.5535 13.4666C16.8088 13.3172 17.0964 13.2315 17.3918 13.2167C17.896 13.1917 18.121 13.0376 18.121 12.4584V10.7084C18.1397 10.5274 18.0864 10.3463 17.9725 10.2043C17.8586 10.0624 17.6934 9.97102 17.5126 9.95006C17.2275 9.89321 16.9608 9.76688 16.7362 9.58226C16.5116 9.39764 16.3361 9.16045 16.2251 8.89173C15.7823 8.0235 15.0998 7.30048 14.2585 6.8084M14.9376 11.3334C14.7405 11.3216 14.556 11.232 14.4248 11.0844C14.2935 10.9368 14.2262 10.7431 14.2376 10.5459C14.2484 10.3521 14.3356 10.1704 14.4801 10.0407C14.6246 9.91107 14.8146 9.844 15.0085 9.85423C15.1095 9.85487 15.2094 9.87604 15.302 9.91646C15.3946 9.95688 15.4781 10.0157 15.5473 10.0894C15.6165 10.163 15.67 10.2499 15.7045 10.3449C15.7391 10.4399 15.754 10.5409 15.7484 10.6418C15.7427 10.7427 15.7166 10.8414 15.6717 10.9319C15.6267 11.0224 15.5638 11.1028 15.4868 11.1683C15.4098 11.2337 15.3204 11.2829 15.2238 11.3127C15.1272 11.3425 15.0256 11.3524 14.9251 11.3417L14.9376 11.3334Z" stroke="white" stroke-linecap="round" stroke-linejoin="round"/>
<path d="M7.39185 6.17503C7.05576 5.95779 6.79429 5.6428 6.64264 5.27246C6.49099 4.90212 6.45644 4.49421 6.54364 4.10364C6.63084 3.71307 6.8356 3.35859 7.13037 3.08791C7.42513 2.81724 7.79575 2.64337 8.19232 2.58971C8.58889 2.53605 8.99239 2.60517 9.34849 2.78777C9.70458 2.97037 9.99619 3.25769 10.1841 3.61104C10.3719 3.96439 10.447 4.36682 10.3992 4.76414C10.3515 5.16147 10.1831 5.53462 9.91685 5.83336" stroke="white" stroke-linecap="round" stroke-linejoin="round"/>
</svg>
