<svg
              xmlns="http://www.w3.org/2000/svg"
              width="19"
              height="12"
              viewBox="0 0 19 12"
              fill="none"
              class="header__burger"
            >
              <path
                d="M1.33398 12H17.334C17.884 12 18.334 11.55 18.334 11C18.334 10.45 17.884 10 17.334 10H1.33398C0.783984 10 0.333984 10.45 0.333984 11C0.333984 11.55 0.783984 12 1.33398 12ZM1.33398 7H17.334C17.884 7 18.334 6.55 18.334 6C18.334 5.45 17.884 5 17.334 5H1.33398C0.783984 5 0.333984 5.45 0.333984 6C0.333984 6.55 0.783984 7 1.33398 7ZM0.333984 1C0.333984 1.55 0.783984 2 1.33398 2H17.334C17.884 2 18.334 1.55 18.334 1C18.334 0.45 17.884 0 17.334 0H1.33398C0.783984 0 0.333984 0.45 0.333984 1Z"
                fill="white"
              />
            </svg>