<svg width="25" height="22" viewBox="0 0 25 22" fill="none" xmlns="http://www.w3.org/2000/svg">
<path fill-rule="evenodd" clip-rule="evenodd" d="M7.3335 1.83325C4.57207 1.83325 2.3335 4.07183 2.3335 6.83325V15.1666C2.3335 17.928 4.57207 20.1666 7.3335 20.1666H17.3335C20.0949 20.1666 22.3335 17.928 22.3335 15.1666V6.83325C22.3335 4.07183 20.0949 1.83325 17.3335 1.83325H7.3335ZM18.3335 6.41658C18.8858 6.41658 19.3335 6.00618 19.3335 5.49992C19.3335 4.99366 18.8858 4.58325 18.3335 4.58325C17.7812 4.58325 17.3335 4.99366 17.3335 5.49992C17.3335 6.00618 17.7812 6.41658 18.3335 6.41658ZM17.3335 10.9999C17.3335 13.5312 15.0949 15.5833 12.3335 15.5833C9.57207 15.5833 7.3335 13.5312 7.3335 10.9999C7.3335 8.46861 9.57207 6.41658 12.3335 6.41658C15.0949 6.41658 17.3335 8.46861 17.3335 10.9999ZM12.3335 13.7499C13.9904 13.7499 15.3335 12.5187 15.3335 10.9999C15.3335 9.48114 13.9904 8.24992 12.3335 8.24992C10.6766 8.24992 9.3335 9.48114 9.3335 10.9999C9.3335 12.5187 10.6766 13.7499 12.3335 13.7499Z" fill="#B6B3EB"/>
</svg>
