<svg width="21" height="20" viewBox="0 0 21 20" fill="none" xmlns="http://www.w3.org/2000/svg">
<path d="M12.8823 12.3615L12.8823 12.3615L12.88 12.3607L8.22206 10.6239C8.0615 10.5641 7.89152 10.5334 7.72015 10.5334C6.92671 10.5334 6.2835 11.1766 6.2835 11.9701V13.8786C6.2835 14.9125 6.97334 15.8193 7.96972 16.0952L11.746 17.1409C12.1708 17.2585 12.6204 17.2516 13.0414 17.121L16.5338 16.0373C16.8618 15.9355 17.1032 15.6713 17.1659 15.3906C17.1981 15.2464 17.1876 15.066 17.0686 14.9169C16.9477 14.7653 16.7647 14.7084 16.5835 14.7084H12.1252C11.7088 14.7084 11.2991 14.6391 10.9034 14.5071L10.903 14.507L9.711 14.1114C9.43113 14.0185 9.27953 13.7163 9.37233 13.4364C9.46518 13.1564 9.76749 13.0047 10.0475 13.0976L11.239 13.4931L11.239 13.4931L11.2414 13.4939C11.3014 13.5133 11.3779 13.5255 11.4462 13.5345C11.5207 13.5444 11.6092 13.5531 11.7045 13.561C11.8955 13.5769 12.1243 13.59 12.3447 13.6004C12.6874 13.6167 13.0069 13.4511 13.1688 13.2152C13.2514 13.0948 13.3126 12.9235 13.2599 12.7391C13.2054 12.5486 13.0533 12.4269 12.8823 12.3615ZM14.1298 11.989C14.422 12.341 14.7654 12.7477 15.1593 13.0647C15.555 13.3832 16.0287 13.6334 16.5835 13.6334C17.8011 13.6334 18.7835 14.6158 18.7835 15.8334C18.7835 16.198 18.5466 16.5202 18.1986 16.629L12.89 18.2879C12.5778 18.3855 12.2441 18.3909 11.9289 18.3035L7.32047 17.0264C6.79909 16.8819 6.2835 17.274 6.2835 17.815C6.2835 17.9356 6.18572 18.0334 6.0651 18.0334H3.5835C2.64461 18.0334 1.8835 17.2723 1.8835 16.3334V11.1667C1.8835 10.2279 2.64461 9.46675 3.5835 9.46675H7.86396C8.067 9.46675 8.2684 9.50312 8.45861 9.57414L13.2532 11.3643C13.2532 11.3643 13.2532 11.3643 13.2533 11.3644C13.6014 11.4949 13.9008 11.7132 14.1298 11.989ZM2.95016 15.8334C2.95016 16.4593 3.45757 16.9667 4.0835 16.9667C4.70942 16.9667 5.21683 16.4593 5.21683 15.8334V11.6667C5.21683 11.0408 4.70942 10.5334 4.0835 10.5334C3.45757 10.5334 2.95016 11.0408 2.95016 11.6667V15.8334Z" fill="white" stroke="#5D55FF" stroke-width="0.6"/>
<path d="M18.0502 6.4459V10.8333C18.0502 11.1831 17.7666 11.4667 17.4168 11.4667C17.067 11.4667 16.7835 11.1831 16.7835 10.8333V7.29131C16.7835 6.57342 16.4332 5.90068 15.8451 5.489L13.6784 3.97233C12.9209 3.44208 11.9127 3.44208 11.1552 3.97233L8.48609 5.84072C8.21288 6.03197 8.05016 6.34449 8.05016 6.67799C8.05016 7.01975 7.76783 7.3 7.42253 7.3C7.07097 7.3 6.7835 7.01468 6.7835 6.66667V6.12452C6.7835 5.74489 6.96683 5.38864 7.27574 5.16798L11.3706 2.24309C11.9965 1.79605 12.8372 1.79605 13.4631 2.24309L17.2964 4.98118C17.7694 5.31906 18.0502 5.86459 18.0502 6.4459ZM11.8002 7.91667C11.8002 8.03633 11.7032 8.13333 11.5835 8.13333C11.4638 8.13333 11.3668 8.03633 11.3668 7.91667C11.3668 7.79701 11.4638 7.7 11.5835 7.7C11.7032 7.7 11.8002 7.79701 11.8002 7.91667ZM13.4668 7.91667C13.4668 8.03633 13.3698 8.13333 13.2502 8.13333C13.1305 8.13333 13.0335 8.03633 13.0335 7.91667C13.0335 7.79701 13.1305 7.7 13.2502 7.7C13.3698 7.7 13.4668 7.79701 13.4668 7.91667ZM11.8002 6.25C11.8002 6.36966 11.7032 6.46667 11.5835 6.46667C11.4638 6.46667 11.3668 6.36966 11.3668 6.25C11.3668 6.13034 11.4638 6.03333 11.5835 6.03333C11.7032 6.03333 11.8002 6.13034 11.8002 6.25ZM13.4668 6.25C13.4668 6.36966 13.3698 6.46667 13.2502 6.46667C13.1305 6.46667 13.0335 6.36966 13.0335 6.25C13.0335 6.13034 13.1305 6.03333 13.2502 6.03333C13.3698 6.03333 13.4668 6.13034 13.4668 6.25Z" fill="white" stroke="#5D55FF" stroke-width="0.4"/>
</svg>
