<svg width="181" height="146" viewBox="0 0 181 146" fill="none" xmlns="http://www.w3.org/2000/svg">
<g clip-path="url(#clip0_0_1)">
<path d="M59.334 105V144.884C59.334 145.179 59.4532 145.466 59.6608 145.674C59.8702 145.881 60.1591 146 60.455 146H99.6836V143.769H61.5759V105H59.334Z" fill="white" fill-opacity="0.1"/>
<path d="M98.6455 119.11C99.5779 119.11 100.334 118.358 100.334 117.431V110.513C100.334 110.071 100.154 109.638 99.8397 109.326C99.5261 109.013 99.0909 108.834 98.6455 108.834H92.1972C91.2648 108.834 90.5091 109.585 90.5091 110.512C90.5091 111.439 91.2648 112.191 92.1972 112.191H94.4253L82.5184 126.175L82.4572 121.971C82.4465 121.271 82.0005 120.651 81.3387 120.415C80.6776 120.178 79.9364 120.376 79.4816 120.91L63.8869 139.226C63.2838 139.933 63.3715 140.993 64.0837 141.593C64.7947 142.192 65.8595 142.104 66.4619 141.396L79.146 126.498L79.2078 130.703C79.2179 131.402 79.6626 132.023 80.3256 132.259C80.9867 132.495 81.7286 132.297 82.1828 131.764L96.9593 114.41V117.431C96.9593 118.358 97.715 119.11 98.6461 119.11H98.6455Z" fill="white" fill-opacity="0.1"/>
</g>
<g clip-path="url(#clip1_0_1)">
<path d="M162.765 35.6014C160.825 36.0878 158.793 36.0806 156.856 35.5807C154.919 35.0807 153.138 34.1039 151.675 32.7391C150.213 31.3744 149.115 29.6652 148.482 27.7674C147.849 25.8695 147.701 23.8435 148.052 21.8739L157.223 28.6459C157.649 28.961 158.184 29.0937 158.708 29.0148C159.233 28.9358 159.704 28.6518 160.019 28.2251C160.335 27.7984 160.467 27.264 160.388 26.7394C160.309 26.2149 160.025 25.7432 159.599 25.4281L149.472 17.9505C149.914 17.1756 150.446 16.4555 151.056 15.8053L161.183 23.283C161.609 23.598 162.144 23.7307 162.668 23.6518C163.193 23.5729 163.665 23.2888 163.98 22.8621C164.295 22.4354 164.427 21.901 164.349 21.3765C164.27 20.852 163.986 20.3803 163.559 20.0652L154.388 13.2932C156.167 12.3784 158.147 11.9235 160.147 11.9699C162.147 12.0164 164.104 12.5627 165.839 13.5591C167.573 14.5556 169.031 15.9704 170.079 17.6746C171.127 19.3788 171.731 21.3182 171.837 23.316C171.866 23.8457 172.104 24.3424 172.499 24.6967C172.894 25.051 173.413 25.234 173.943 25.2054C174.472 25.1768 174.969 24.9389 175.324 24.5441C175.678 24.1492 175.861 23.6298 175.832 23.1001C175.681 20.2729 174.782 17.5365 173.227 15.1707C171.671 12.805 169.516 10.8947 166.98 9.6354C164.444 8.37606 161.619 7.81279 158.795 8.0032C155.97 8.1936 153.246 9.13085 150.902 10.7191L149.615 9.76864C149.189 9.45354 148.654 9.32086 148.13 9.39978C147.605 9.4787 147.133 9.76275 146.818 10.1895C146.503 10.6162 146.371 11.1506 146.449 11.6751C146.528 12.1996 146.812 12.6713 147.239 12.9864L147.83 13.4228C147.538 13.7557 147.251 14.0925 146.983 14.455C146.716 14.8175 146.478 15.1908 146.246 15.568L145.655 15.1316C145.228 14.8165 144.694 14.6838 144.169 14.7627C143.645 14.8416 143.173 15.1257 142.858 15.5524C142.543 15.9791 142.41 16.5135 142.489 17.038C142.568 17.5626 142.852 18.0343 143.279 18.3493L144.566 19.2998C143.738 22.0072 143.643 24.886 144.293 27.6418C144.942 30.3976 146.311 32.9315 148.261 34.9844C150.211 37.0374 152.671 38.5356 155.39 39.326C158.108 40.1163 160.988 40.1705 163.735 39.4828C164.249 39.3543 164.692 39.0266 164.965 38.5717C165.238 38.1169 165.319 37.5722 165.191 37.0575C165.127 36.8027 165.014 36.5628 164.858 36.3517C164.701 36.1406 164.505 35.9624 164.28 35.8272C163.825 35.5541 163.28 35.4729 162.765 35.6014Z" fill="white" fill-opacity="0.1"/>
</g>
<g clip-path="url(#clip2_0_1)">
<path d="M38.0523 45.5371L24.2236 53.6035C23.987 52.2601 23.5015 50.9727 22.7921 49.8077L20.1049 45.2008L26.4394 41.5059C26.8976 41.2386 27.2308 40.8003 27.3659 40.2873C27.5009 39.7744 27.4266 39.2288 27.1593 38.7706C26.892 38.3124 26.4537 37.9792 25.9407 37.8442C25.4278 37.7092 24.8822 37.7835 24.424 38.0507L18.0895 41.7456L16.0741 38.2905C15.2141 36.8094 14.9554 35.0547 15.3515 33.3885C15.7475 31.7222 16.768 30.2716 18.2025 29.3358C19.6369 28.4001 21.3758 28.0507 23.0604 28.3597C24.7449 28.6688 26.2466 29.6127 27.2555 30.9966C27.5227 31.4548 27.961 31.788 28.474 31.923C28.987 32.058 29.5326 31.9837 29.9907 31.7165C30.4489 31.4492 30.7822 31.0109 30.9172 30.4979C31.0522 29.985 30.9779 29.4394 30.7106 28.9812C28.0268 24.3801 21.367 22.8545 16.4584 25.7177C14.0172 27.1453 12.2419 29.483 11.5222 32.2179C10.8024 34.9528 11.1968 37.8615 12.619 40.3059L14.6344 43.761L12.9068 44.7687C12.4486 45.036 12.1154 45.4743 11.9804 45.9873C11.8454 46.5002 11.9197 47.0458 12.1869 47.504C12.4542 47.9622 12.8925 48.2954 13.4055 48.4305C13.9184 48.5655 14.464 48.4912 14.9222 48.2239L16.6498 47.2162L19.337 51.8231C21.0722 54.798 20.5036 55.7734 18.4731 56.9577C18.0149 57.225 17.6816 57.6633 17.5466 58.1763C17.4116 58.6893 17.4859 59.2348 17.7532 59.693C18.0205 60.1512 18.4588 60.4845 18.9717 60.6195C19.4847 60.7545 20.0303 60.6802 20.4885 60.4129L40.0677 48.9923C40.5259 48.7251 40.8592 48.2867 40.9942 47.7738C41.1292 47.2608 41.0549 46.7152 40.7876 46.257C40.5204 45.7988 40.082 45.4656 39.5691 45.3306C39.0561 45.1956 38.5105 45.2699 38.0523 45.5371Z" fill="white" fill-opacity="0.1"/>
</g>
<defs>
<clipPath id="clip0_0_1">
<rect width="41" height="41" fill="white" transform="translate(59.334 105)"/>
</clipPath>
<clipPath id="clip1_0_1">
<rect width="32" height="32" fill="white" transform="translate(154.343) rotate(36.4436)"/>
</clipPath>
<clipPath id="clip2_0_1">
<rect width="32" height="32" fill="white" transform="translate(0.333984 35.123) rotate(-30.255)"/>
</clipPath>
</defs>
</svg>
