<svg width="21" height="20" viewBox="0 0 21 20" fill="none" xmlns="http://www.w3.org/2000/svg">
<path d="M10.3335 17C8.94903 17 7.59565 16.5895 6.44451 15.8203C5.29336 15.0511 4.39616 13.9579 3.86634 12.6788C3.33653 11.3997 3.19791 9.99223 3.468 8.63437C3.7381 7.2765 4.40478 6.02922 5.38375 5.05025C6.36272 4.07129 7.61 3.4046 8.96786 3.13451C10.3257 2.86441 11.7332 3.00303 13.0123 3.53285C14.2914 4.06266 15.3846 4.95987 16.1538 6.11101C16.9229 7.26215 17.3335 8.61553 17.3335 10C17.3335 11.8565 16.596 13.637 15.2832 14.9497C13.9705 16.2625 12.19 17 10.3335 17ZM10.3335 4C9.14681 4 7.98677 4.3519 7.00008 5.01118C6.01338 5.67047 5.24435 6.60754 4.79022 7.7039C4.3361 8.80026 4.21728 10.0067 4.44879 11.1705C4.6803 12.3344 5.25174 13.4035 6.09086 14.2426C6.92997 15.0818 7.99907 15.6532 9.16295 15.8847C10.3268 16.1162 11.5332 15.9974 12.6296 15.5433C13.726 15.0891 14.663 14.3201 15.3223 13.3334C15.9816 12.3467 16.3335 11.1867 16.3335 10C16.3335 8.4087 15.7014 6.88258 14.5761 5.75736C13.4509 4.63214 11.9248 4 10.3335 4Z" fill="white"/>
<path d="M11.7292 13L9.3335 10.3913V6H10.1906V10.004L12.3335 12.342L11.7292 13Z" fill="white"/>
</svg>
