<svg width="136" height="40" viewBox="0 0 136 40" fill="none" xmlns="http://www.w3.org/2000/svg">
<rect x="0.833496" y="0.5" width="134" height="39" rx="7.5" fill="black"/>
<rect x="0.833496" y="0.5" width="134" height="39" rx="7.5" stroke="#A6A6A6"/>
<path d="M68.4705 21.752C66.1185 21.752 64.2015 23.54 64.2015 26.005C64.2015 28.454 66.1185 30.258 68.4705 30.258C70.8225 30.258 72.7395 28.454 72.7395 26.005C72.7395 23.54 70.8225 21.752 68.4705 21.752ZM68.4705 28.583C67.1815 28.583 66.0695 27.52 66.0695 26.005C66.0695 24.474 67.1815 23.427 68.4705 23.427C69.7595 23.427 70.8705 24.474 70.8705 26.005C70.8705 27.519 69.7595 28.583 68.4705 28.583ZM59.1565 21.752C56.8045 21.752 54.8875 23.54 54.8875 26.005C54.8875 28.454 56.8045 30.258 59.1565 30.258C61.5085 30.258 63.4255 28.454 63.4255 26.005C63.4265 23.54 61.5085 21.752 59.1565 21.752ZM59.1565 28.583C57.8675 28.583 56.7565 27.52 56.7565 26.005C56.7565 24.474 57.8685 23.427 59.1565 23.427C60.4455 23.427 61.5565 24.474 61.5565 26.005C61.5575 27.519 60.4455 28.583 59.1565 28.583ZM48.0785 24.861H52.3965C52.2675 25.876 51.9295 26.617 51.4135 27.133C50.7855 27.761 49.8025 28.454 48.0785 28.454C45.4205 28.454 43.3425 26.311 43.3425 23.653C43.3425 20.995 45.4205 18.852 48.0785 18.852C49.5125 18.852 50.5595 19.416 51.3325 20.141L52.6055 18.868C51.5265 17.837 50.0925 17.047 48.0785 17.047C44.4375 17.047 41.3765 20.011 41.3765 23.652C41.3765 27.293 44.4375 30.257 48.0785 30.257C50.0435 30.257 51.5265 29.613 52.6865 28.404C53.8785 27.212 54.2495 25.536 54.2495 24.183C54.2495 23.764 54.2175 23.377 54.1525 23.055H48.0785V24.861ZM93.3865 24.458C93.0325 23.507 91.9525 21.751 89.7455 21.751C87.5545 21.751 85.7345 23.475 85.7345 26.004C85.7345 28.388 87.5385 30.257 89.9555 30.257C91.9045 30.257 93.0325 29.065 93.4995 28.372L92.0495 27.405C91.5665 28.114 90.9055 28.581 89.9555 28.581C89.0045 28.581 88.3285 28.146 87.8935 27.292L93.5805 24.94L93.3865 24.458ZM87.5865 25.876C87.5385 24.233 88.8595 23.395 89.8095 23.395C90.5505 23.395 91.1785 23.765 91.3885 24.297L87.5865 25.876ZM82.9625 30H84.8315V17.499H82.9625V30ZM79.9015 22.702H79.8375C79.4185 22.203 78.6135 21.751 77.5985 21.751C75.4715 21.751 73.5225 23.62 73.5225 26.02C73.5225 28.404 75.4715 30.257 77.5985 30.257C78.6135 30.257 79.4185 29.806 79.8375 29.29H79.9015V29.902C79.9015 31.529 79.0315 32.399 77.6295 32.399C76.4855 32.399 75.7765 31.577 75.4865 30.885L73.8595 31.562C74.3265 32.69 75.5675 34.075 77.6295 34.075C79.8205 34.075 81.6735 32.786 81.6735 29.645V22.009H79.9015V22.702ZM77.7595 28.583C76.4705 28.583 75.3915 27.504 75.3915 26.021C75.3915 24.523 76.4705 23.427 77.7595 23.427C79.0325 23.427 80.0305 24.522 80.0305 26.021C80.0305 27.503 79.0325 28.583 77.7595 28.583ZM102.14 17.499H97.6695V30H99.5345V25.264H102.139C104.207 25.264 106.24 23.767 106.24 21.382C106.24 18.997 104.208 17.499 102.14 17.499ZM102.188 23.524H99.5345V19.239H102.188C103.583 19.239 104.375 20.394 104.375 21.382C104.375 22.35 103.583 23.524 102.188 23.524ZM113.72 21.729C112.369 21.729 110.97 22.324 110.391 23.643L112.048 24.335C112.402 23.643 113.061 23.418 113.753 23.418C114.718 23.418 115.699 23.997 115.715 25.026V25.155C115.377 24.962 114.653 24.672 113.769 24.672C111.984 24.672 110.166 25.653 110.166 27.487C110.166 29.16 111.63 30.237 113.27 30.237C114.525 30.237 115.216 29.674 115.65 29.015H115.714V29.98H117.515V25.187C117.515 22.967 115.859 21.729 113.72 21.729ZM113.494 28.58C112.883 28.58 112.03 28.274 112.03 27.519C112.03 26.554 113.092 26.184 114.008 26.184C114.828 26.184 115.214 26.361 115.713 26.602C115.569 27.76 114.572 28.58 113.494 28.58ZM124.077 22.002L121.938 27.422H121.874L119.655 22.002H117.645L120.974 29.577L119.076 33.791H121.022L126.153 22.002H124.077ZM107.27 30H109.136V17.499H107.27V30Z" fill="white"/>
<path d="M47.7095 9.79097H44.8015V10.512H46.9805C46.9215 11.098 46.6865 11.559 46.2935 11.894C45.8995 12.229 45.3965 12.397 44.8015 12.397C44.1475 12.397 43.5945 12.171 43.1425 11.718C42.6985 11.257 42.4715 10.688 42.4715 9.99997C42.4715 9.31297 42.6985 8.74297 43.1425 8.28197C43.5945 7.82997 44.1475 7.60397 44.8015 7.60397C45.1365 7.60397 45.4555 7.66197 45.7485 7.78797C46.0415 7.91397 46.2765 8.08997 46.4605 8.31597L47.0135 7.76297C46.7625 7.47797 46.4435 7.25997 46.0505 7.10097C45.6565 6.94197 45.2455 6.86597 44.8015 6.86597C43.9295 6.86597 43.1925 7.16797 42.5895 7.77097C41.9855 8.37497 41.6845 9.11997 41.6845 9.99997C41.6845 10.88 41.9855 11.626 42.5895 12.229C43.1925 12.833 43.9295 13.134 44.8015 13.134C45.7145 13.134 46.4435 12.841 47.0055 12.246C47.4995 11.752 47.7515 11.081 47.7515 10.243C47.7515 10.101 47.7345 9.94997 47.7095 9.79097Z" fill="white"/>
<path d="M48.8575 6.99997V13H52.3605V12.263H49.6285V10.361H52.0915V9.63997H49.6285V7.73797H52.3605V6.99997H48.8575Z" fill="white"/>
<path d="M57.2865 7.73797V6.99997H53.1635V7.73797H54.8395V13H55.6105V7.73797H57.2865Z" fill="white"/>
<path d="M61.0414 6.99997H60.2704V13H61.0414V6.99997Z" fill="white"/>
<path d="M66.1364 7.73797V6.99997H62.0134V7.73797H63.6894V13H64.4604V7.73797H66.1364Z" fill="white"/>
<path d="M73.9385 7.77997C73.3435 7.16797 72.6145 6.86597 71.7425 6.86597C70.8715 6.86597 70.1415 7.16797 69.5465 7.77097C68.9515 8.36597 68.6585 9.11197 68.6585 9.99997C68.6585 10.889 68.9515 11.634 69.5465 12.229C70.1415 12.833 70.8715 13.134 71.7425 13.134C72.6055 13.134 73.3435 12.833 73.9385 12.229C74.5335 11.634 74.8265 10.889 74.8265 9.99997C74.8265 9.11997 74.5335 8.37497 73.9385 7.77997ZM70.1005 8.28197C70.5445 7.82997 71.0885 7.60397 71.7425 7.60397C72.3965 7.60397 72.9405 7.82997 73.3765 8.28197C73.8205 8.72697 74.0385 9.30497 74.0385 9.99997C74.0385 10.696 73.8205 11.274 73.3765 11.718C72.9405 12.171 72.3965 12.397 71.7425 12.397C71.0885 12.397 70.5445 12.171 70.1005 11.718C69.6645 11.266 69.4465 10.696 69.4465 9.99997C69.4465 9.30497 69.6645 8.73497 70.1005 8.28197Z" fill="white"/>
<path d="M76.6785 9.26297L76.6455 8.10597H76.6785L79.7295 13H80.5335V6.99997H79.7625V10.512L79.7965 11.668H79.7625L76.8465 6.99997H75.9085V13H76.6785V9.26297Z" fill="white"/>
<path d="M21.0508 19.4243L10.4038 30.7243C10.4048 30.7263 10.4048 30.7283 10.4058 30.7303C10.7318 31.9583 11.8528 32.8613 13.1828 32.8613C13.7148 32.8613 14.2138 32.7173 14.6418 32.4653L14.6758 32.4453L26.6598 25.5303L21.0508 19.4243Z" fill="#EB4335"/>
<path d="M31.8231 17.5004L31.8131 17.4934L26.6391 14.4934L20.8101 19.6804L26.6591 25.5284L31.8061 22.5594C32.7081 22.0724 33.3201 21.1214 33.3201 20.0244C33.3201 18.9354 32.7161 17.9884 31.8231 17.5004Z" fill="#FABC13"/>
<path d="M10.4042 9.27734C10.3402 9.51334 10.3062 9.76034 10.3062 10.0173V29.9843C10.3062 30.2413 10.3388 30.4893 10.4038 30.7243L21.4172 19.7133L10.4042 9.27734Z" fill="#547DBF"/>
<path d="M21.1288 20.0004L26.6398 14.4914L14.6688 7.55138C14.2338 7.29038 13.7268 7.14038 13.1828 7.14038C11.8528 7.14038 10.7308 8.04538 10.4038 9.27438L10.4042 9.27734L21.1288 20.0004Z" fill="#30A851"/>
</svg>
