<svg width="49" height="36" viewBox="0 0 49 36" fill="none" xmlns="http://www.w3.org/2000/svg">
<path d="M-1.68213 6.65753V19.143H13.0151C13.0118 21.9015 11.9047 24.546 9.93665 26.4965C7.9686 28.447 5.30032 29.5443 2.51709 29.5476V35.7904C6.97036 35.7854 11.2398 34.0299 14.3888 30.909C17.5377 27.7881 19.309 23.5567 19.314 19.143V-1.66614H6.71631C4.4889 -1.66614 2.35273 -0.789183 0.777717 0.771807C-0.797296 2.3328 -1.68213 4.44995 -1.68213 6.65753Z" fill="white" fill-opacity="0.1"/>
<path d="M36.1106 -1.66614C33.8833 -1.66614 31.7471 -0.789183 30.1721 0.771807C28.5971 2.3328 27.7122 4.44995 27.7122 6.65753V19.143H42.4095C42.4061 21.9015 41.299 24.546 39.331 26.4965C37.3629 28.447 34.6947 29.5443 31.9114 29.5476V35.7904C36.3647 35.7854 40.6341 34.0299 43.7831 30.909C46.932 27.7881 48.7033 23.5567 48.7083 19.143V-1.66614H36.1106Z" fill="white" fill-opacity="0.1"/>
</svg>
