<svg width="55" height="35" viewBox="0 0 55 35" fill="none" xmlns="http://www.w3.org/2000/svg">
<path d="M0.333496 7.58V18.95H16.1707C16.1671 21.462 14.9741 23.8703 12.8534 25.6465C10.7327 27.4228 7.85749 28.422 4.8584 28.425V34.11C9.65706 34.1055 14.2576 32.5068 17.6508 29.6648C21.044 26.8227 22.9526 22.9693 22.958 18.95V0H9.3833C6.98314 0 4.68129 0.798605 2.98412 2.22013C1.28696 3.64166 0.333496 5.56966 0.333496 7.58Z" fill="#5D55FF" fill-opacity="0.1"/>
<path d="M41.0574 0C38.6573 0 36.3554 0.798605 34.6582 2.22013C32.9611 3.64166 32.0076 5.56966 32.0076 7.58V18.95H47.8447C47.8411 21.462 46.6482 23.8703 44.5275 25.6465C42.4068 27.4228 39.5316 28.422 36.5325 28.425V34.11C41.3312 34.1055 45.9317 32.5068 49.3249 29.6648C52.718 26.8227 54.6267 22.9693 54.6321 18.95V0H41.0574Z" fill="#5D55FF" fill-opacity="0.1"/>
</svg>
