<svg width="15" height="14" viewBox="0 0 15 14" fill="none" xmlns="http://www.w3.org/2000/svg">
<path fill-rule="evenodd" clip-rule="evenodd" d="M8.16169 1.13275L9.53225 3.87082C9.66657 4.13962 9.92584 4.32601 10.2265 4.36914L13.2925 4.81046C14.05 4.91983 14.3515 5.83791 13.8032 6.36396L11.5861 8.49433C11.3682 8.70382 11.2691 9.00497 11.3206 9.30073L11.8438 12.3084C11.9727 13.0524 11.1808 13.62 10.5037 13.268L7.76341 11.847C7.49476 11.7076 7.17301 11.7076 6.90359 11.847L4.16325 13.268C3.48617 13.62 2.69429 13.0524 2.82393 12.3084L3.34638 9.30073C3.39792 9.00497 3.29874 8.70382 3.08086 8.49433L0.863756 6.36396C0.315533 5.83791 0.616977 4.91983 1.37449 4.81046L4.44048 4.36914C4.74115 4.32601 5.0012 4.13962 5.13553 3.87082L6.5053 1.13275C6.84423 0.455748 7.82276 0.455748 8.16169 1.13275Z" fill="#FFB800"/>
</svg>
