<svg width="21" height="20" viewBox="0 0 21 20" fill="none" xmlns="http://www.w3.org/2000/svg">
<path d="M5.20269 10.0005V6.62885C5.2127 5.96611 5.35339 5.31185 5.61671 4.70357C5.88002 4.09529 6.26078 3.54494 6.73717 3.08405C7.21356 2.62317 7.77621 2.26082 8.39289 2.01775C9.00956 1.77468 9.66814 1.65568 10.3309 1.66756C10.9936 1.65568 11.6522 1.77468 12.2689 2.01775C12.8856 2.26082 13.4482 2.62317 13.9246 3.08405C14.401 3.54494 14.7818 4.09529 15.0451 4.70357C15.3084 5.31185 15.4491 5.96611 15.4591 6.62885V10.0005M12.895 16.7309C13.575 16.7309 14.2272 16.4608 14.7081 15.98C15.189 15.4991 15.4591 14.847 15.4591 14.1669V11.2825M12.895 16.7309C12.895 17.1559 12.7262 17.5635 12.4256 17.8641C12.1251 18.1646 11.7175 18.3334 11.2924 18.3334H9.36935C8.94433 18.3334 8.53671 18.1646 8.23617 17.8641C7.93563 17.5635 7.76679 17.1559 7.76679 16.7309C7.76679 16.3059 7.93563 15.8983 8.23617 15.5978C8.53671 15.2973 8.94433 15.1284 9.36935 15.1284H11.2924C11.7175 15.1284 12.1251 15.2973 12.4256 15.5978C12.7262 15.8983 12.895 16.3059 12.895 16.7309ZM3.27961 8.0775H4.56166C4.73167 8.0775 4.89472 8.14504 5.01493 8.26525C5.13515 8.38546 5.20269 8.54849 5.20269 8.7185V12.5645C5.20269 12.7345 5.13515 12.8975 5.01493 13.0177C4.89472 13.1379 4.73167 13.2055 4.56166 13.2055H3.27961C2.93959 13.2055 2.61349 13.0704 2.37306 12.83C2.13263 12.5896 1.99756 12.2635 1.99756 11.9235V9.35949C1.99756 9.01949 2.13263 8.69341 2.37306 8.45299C2.61349 8.21257 2.93959 8.0775 3.27961 8.0775ZM17.3822 13.2055H16.1001C15.9301 13.2055 15.7671 13.1379 15.6468 13.0177C15.5266 12.8975 15.4591 12.7345 15.4591 12.5645V8.7185C15.4591 8.54849 15.5266 8.38546 15.6468 8.26525C15.7671 8.14504 15.9301 8.0775 16.1001 8.0775H17.3822C17.7222 8.0775 18.0483 8.21257 18.2887 8.45299C18.5292 8.69341 18.6642 9.01949 18.6642 9.35949V11.9235C18.6642 12.2635 18.5292 12.5896 18.2887 12.83C18.0483 13.0704 17.7222 13.2055 17.3822 13.2055Z" stroke="white" stroke-linecap="round" stroke-linejoin="round"/>
</svg>
