<svg width="163" height="493" viewBox="0 0 163 493" fill="none" xmlns="http://www.w3.org/2000/svg">
<g clip-path="url(#clip0_0_1)">
<path d="M0.333984 452V491.884C0.333984 492.179 0.453211 492.466 0.660753 492.674C0.870188 492.881 1.15911 493 1.45496 493H40.6836V490.769H2.57595V452H0.333984Z" fill="white" fill-opacity="0.1"/>
<path d="M39.6455 466.11C40.5779 466.11 41.3336 465.358 41.3336 464.431V457.513C41.3336 457.071 41.1544 456.638 40.8397 456.326C40.5261 456.013 40.0909 455.834 39.6455 455.834H33.1972C32.2648 455.834 31.5091 456.585 31.5091 457.512C31.5091 458.439 32.2648 459.191 33.1972 459.191H35.4253L23.5184 473.175L23.4572 468.971C23.4465 468.271 23.0005 467.651 22.3387 467.415C21.6776 467.178 20.9364 467.376 20.4816 467.91L4.88691 486.226C4.28384 486.933 4.37152 487.993 5.08372 488.593C5.79467 489.192 6.8595 489.104 7.46194 488.396L20.146 473.498L20.2078 477.703C20.2179 478.402 20.6626 479.023 21.3256 479.259C21.9867 479.495 22.7286 479.297 23.1828 478.764L37.9593 461.41V464.431C37.9593 465.358 38.715 466.11 39.6461 466.11H39.6455Z" fill="white" fill-opacity="0.1"/>
</g>
<g clip-path="url(#clip1_0_1)">
<path d="M64.7654 363.601C62.8248 364.088 60.7934 364.081 58.8563 363.581C56.9193 363.081 55.1381 362.104 53.6754 360.739C52.2126 359.374 51.1147 357.665 50.4818 355.767C49.8489 353.87 49.7011 351.843 50.0519 349.874L59.2226 356.646C59.6493 356.961 60.1837 357.094 60.7082 357.015C61.2327 356.936 61.7044 356.652 62.0195 356.225C62.3346 355.798 62.4673 355.264 62.3884 354.739C62.3094 354.215 62.0254 353.743 61.5987 353.428L51.4724 345.95C51.9141 345.176 52.4458 344.456 53.0565 343.805L63.1828 351.283C63.6095 351.598 64.1439 351.731 64.6684 351.652C65.1929 351.573 65.6646 351.289 65.9797 350.862C66.2948 350.435 66.4275 349.901 66.3486 349.377C66.2696 348.852 65.9856 348.38 65.5589 348.065L56.3883 341.293C58.1674 340.378 60.1472 339.923 62.1473 339.97C64.1473 340.016 66.1039 340.563 67.8386 341.559C69.5734 342.556 71.0311 343.97 72.0789 345.675C73.1267 347.379 73.7313 349.318 73.8374 351.316C73.8661 351.846 74.104 352.342 74.4988 352.697C74.8936 353.051 75.413 353.234 75.9428 353.205C76.4725 353.177 76.9692 352.939 77.3235 352.544C77.6778 352.149 77.8608 351.63 77.8322 351.1C77.6813 348.273 76.7821 345.536 75.2268 343.171C73.6714 340.805 71.5156 338.895 68.9799 337.635C66.4441 336.376 63.6194 335.813 60.7946 336.003C57.9697 336.194 55.2462 337.131 52.9023 338.719L51.6152 337.769C51.1885 337.454 50.6541 337.321 50.1296 337.4C49.6051 337.479 49.1334 337.763 48.8183 338.189C48.5032 338.616 48.3705 339.151 48.4494 339.675C48.5284 340.2 48.8124 340.671 49.2391 340.986L49.8301 341.423C49.5379 341.756 49.2511 342.092 48.9834 342.455C48.7157 342.818 48.4782 343.191 48.246 343.568L47.655 343.132C47.2283 342.816 46.6939 342.684 46.1694 342.763C45.6449 342.842 45.1732 343.126 44.8581 343.552C44.543 343.979 44.4103 344.513 44.4892 345.038C44.5681 345.563 44.8522 346.034 45.2789 346.349L46.566 347.3C45.7378 350.007 45.6434 352.886 46.2927 355.642C46.9419 358.398 48.3114 360.932 50.2612 362.984C52.2109 365.037 54.6709 366.536 57.3896 367.326C60.1083 368.116 62.9881 368.17 65.7346 367.483C66.2493 367.354 66.6918 367.027 66.9649 366.572C67.238 366.117 67.3192 365.572 67.1907 365.058C67.127 364.803 67.0138 364.563 66.8575 364.352C66.7012 364.141 66.5048 363.962 66.2796 363.827C65.8248 363.554 65.2801 363.473 64.7654 363.601Z" fill="white" fill-opacity="0.1"/>
</g>
<g clip-path="url(#clip2_0_1)">
<path d="M47.7514 21.7401C47.5869 23.7339 46.926 25.6548 45.8288 27.3277C44.7317 29.0006 43.2333 30.3722 41.4701 31.3175C39.707 32.2629 37.7353 32.7518 35.7348 32.7399C33.7343 32.7279 31.7686 32.2153 30.0169 31.2489L39.3814 24.7477C39.8171 24.4452 40.1149 23.982 40.2091 23.46C40.3033 22.938 40.1863 22.3999 39.8838 21.9642C39.5813 21.5285 39.1181 21.2308 38.5961 21.1366C38.0741 21.0424 37.536 21.1594 37.1003 21.4619L26.7599 28.6406C26.1685 27.9728 25.6581 27.2375 25.2391 26.4501L35.5795 19.2714C36.0153 18.9689 36.313 18.5057 36.4072 17.9837C36.5014 17.4617 36.3844 16.9236 36.0819 16.4879C35.7794 16.0522 35.3162 15.7545 34.7942 15.6602C34.2722 15.566 33.7341 15.6831 33.2984 15.9856L23.9339 22.4868C23.6408 20.5078 23.8477 18.4869 24.5357 16.6084C25.2238 14.7299 26.3711 13.0535 27.8731 11.7321C29.3751 10.4106 31.184 9.48618 33.1349 9.04302C35.0858 8.59986 37.1165 8.65208 39.042 9.19493C39.5528 9.33843 40.0996 9.27316 40.5622 9.01348C41.0248 8.75381 41.3653 8.321 41.5088 7.81026C41.6523 7.29952 41.5871 6.7527 41.3274 6.29009C41.0677 5.82747 40.6349 5.48696 40.1242 5.34346C37.399 4.57588 34.5188 4.54587 31.7782 5.2565C29.0375 5.96712 26.5348 7.39289 24.526 9.38798C22.5171 11.3831 21.0742 13.8759 20.3447 16.6116C19.6153 19.3472 19.6255 22.2276 20.3743 24.958L19.06 25.8704C18.6242 26.1729 18.3265 26.6361 18.2323 27.1581C18.1381 27.6801 18.2551 28.2182 18.5576 28.6539C18.8601 29.0896 19.3233 29.3873 19.8453 29.4815C20.3673 29.5758 20.9054 29.4587 21.3411 29.1562L21.9446 28.7373C22.1656 29.1211 22.3921 29.5011 22.6491 29.8713C22.9061 30.2415 23.183 30.5866 23.4653 30.9278L22.8618 31.3468C22.4261 31.6493 22.1284 32.1125 22.0342 32.6345C21.94 33.1565 22.057 33.6945 22.3595 34.1302C22.662 34.566 23.1252 34.8637 23.6472 34.9579C24.1692 35.0521 24.7073 34.9351 25.143 34.6326L26.4573 33.7201C28.7537 35.3761 31.4488 36.3925 34.2668 36.6654C37.0849 36.9382 39.9249 36.4577 42.4963 35.2729C45.0678 34.0882 47.2784 32.2418 48.9022 29.9224C50.526 27.6031 51.5047 24.8941 51.7381 22.0725C51.7822 21.5439 51.6145 21.0193 51.2718 20.6143C50.9292 20.2093 50.4397 19.957 49.911 19.9129C49.6492 19.8911 49.3857 19.9211 49.1355 20.0011C48.8853 20.0811 48.6533 20.2096 48.4528 20.3793C48.0478 20.7219 47.7955 21.2114 47.7514 21.7401Z" fill="white" fill-opacity="0.1"/>
</g>
<g clip-path="url(#clip3_0_1)">
<path d="M156.052 81.5374L142.224 89.6037C141.987 88.2603 141.502 86.973 140.792 85.8079L138.105 81.201L144.439 77.5061C144.898 77.2389 145.231 76.8006 145.366 76.2876C145.501 75.7746 145.427 75.229 145.159 74.7709C144.892 74.3127 144.454 73.9794 143.941 73.8444C143.428 73.7094 142.882 73.7837 142.424 74.051L136.09 77.7459L134.074 74.2907C133.214 72.8096 132.955 71.055 133.351 69.3887C133.747 67.7225 134.768 66.2718 136.202 65.3361C137.637 64.4004 139.376 64.051 141.06 64.36C142.745 64.669 144.247 65.6129 145.255 66.9969C145.523 67.455 145.961 67.7883 146.474 67.9233C146.987 68.0583 147.533 67.984 147.991 67.7167C148.449 67.4495 148.782 67.0112 148.917 66.4982C149.052 65.9852 148.978 65.4396 148.711 64.9815C146.027 60.3803 139.367 58.8547 134.458 61.7179C132.017 63.1456 130.242 65.4833 129.522 68.2181C128.802 70.953 129.197 73.8617 130.619 76.3061L132.634 79.7613L130.907 80.769C130.449 81.0362 130.115 81.4746 129.98 81.9875C129.845 82.5005 129.92 83.0461 130.187 83.5043C130.454 83.9624 130.893 84.2957 131.405 84.4307C131.918 84.5657 132.464 84.4914 132.922 84.2241L134.65 83.2164L137.337 87.8233C139.072 90.7982 138.504 91.7736 136.473 92.958C136.015 93.2253 135.682 93.6636 135.547 94.1765C135.412 94.6895 135.486 95.2351 135.753 95.6933C136.02 96.1515 136.459 96.4847 136.972 96.6197C137.485 96.7547 138.03 96.6804 138.488 96.4132L158.068 84.9926C158.526 84.7253 158.859 84.287 158.994 83.774C159.129 83.261 159.055 82.7155 158.788 82.2573C158.52 81.7991 158.082 81.4658 157.569 81.3308C157.056 81.1958 156.511 81.2701 156.052 81.5374Z" fill="white" fill-opacity="0.1"/>
</g>
<defs>
<clipPath id="clip0_0_1">
<rect width="41" height="41" fill="white" transform="translate(0.333984 452)"/>
</clipPath>
<clipPath id="clip1_0_1">
<rect width="32" height="32" fill="white" transform="translate(56.3428 328) rotate(36.4436)"/>
</clipPath>
<clipPath id="clip2_0_1">
<rect width="32" height="32" fill="white" transform="translate(11.334 18.249) rotate(-34.7699)"/>
</clipPath>
<clipPath id="clip3_0_1">
<rect width="32" height="32" fill="white" transform="translate(118.334 71.1233) rotate(-30.255)"/>
</clipPath>
</defs>
</svg>
