<svg width="21" height="20" viewBox="0 0 21 20" fill="none" xmlns="http://www.w3.org/2000/svg">
<path d="M6.85 13.3333V13.4833H7H18.5167V14.8499H15.3333H15.1833V14.9999V16.6666V16.8166H15.3333H16.6379L14.5 18.9545L12.3621 16.8166H13.6667H13.8167V16.6666V14.9999V14.8499H13.6667H7C6.16618 14.8499 5.48333 14.1671 5.48333 13.3333V6.66658V6.51658H5.33333H2.15V5.14992H5.33333H5.48333V4.99992V3.33325V3.18325H5.33333H4.0288L6.16667 1.04538L8.30453 3.18325H7H6.85V3.33325V13.3333ZM13.8167 6.66658V6.51658H13.6667H8.81667V5.14992H13.6667C14.5005 5.14992 15.1833 5.83276 15.1833 6.66658V11.5166H13.8167V6.66658Z" fill="white" stroke="#5D55FF" stroke-width="0.3"/>
</svg>
