<svg width="25" height="22" viewBox="0 0 25 22" fill="none" xmlns="http://www.w3.org/2000/svg">
<path d="M15.6193 3.66675C13.5155 3.66675 11.81 5.30837 11.81 7.33341C11.81 7.63942 11.8489 7.93667 11.9223 8.22082C9.89936 8.22082 6.85239 7.8459 4.30769 5.50889C3.96931 5.19812 3.34534 5.4059 3.36881 5.84445C3.74593 12.8909 7.03802 14.9462 8.73335 15.0742C7.6386 16.0653 6.04835 16.8476 4.44814 17.1988C4.02582 17.2914 3.92149 17.7152 4.33445 17.8383C5.47948 18.1797 7.11842 18.3112 8.0006 18.3334C14.2414 18.3334 19.3139 13.5183 19.4268 7.53718C20.2461 7.04874 20.771 5.98821 21.0659 5.23691C21.1377 5.05394 20.8105 4.84075 20.6147 4.91549C20.0026 5.14907 19.2256 5.20444 18.5637 5.00674C17.865 4.18858 16.8055 3.66675 15.6193 3.66675Z" fill="#B6B3EB"/>
</svg>
