<svg width="21" height="20" viewBox="0 0 21 20" fill="none" xmlns="http://www.w3.org/2000/svg">
<path d="M15.3333 9.16667L15.3333 5.83333L5.33333 5.83333V15.8333C5.33333 16.7538 6.07953 17.5 7 17.5H13.6667C14.5871 17.5 15.3333 16.7538 15.3333 15.8333V9.16667ZM15.3333 9.16667C17.1743 9.16667 18.6667 7.67428 18.6667 5.83333C18.6667 3.99239 17.1743 2.5 15.3333 2.5H5.33333C3.49238 2.5 2 3.99238 2 5.83333C2 7.67428 3.49238 9.16667 5.33333 9.16667" stroke="white" stroke-linejoin="round"/>
<path d="M12.0003 10.4882L10.9229 9.41083C10.5975 9.08539 10.0698 9.08539 9.7444 9.41083L8.66699 10.4882M10.3337 13.8216V9.6549" stroke="white" stroke-linecap="round"/>
</svg>
