<svg width="293" height="162" viewBox="0 0 293 162" fill="none" xmlns="http://www.w3.org/2000/svg">
<g filter="url(#filter0_b_355_10696)">
<g clip-path="url(#clip0_355_10696)">
<rect x="0.333984" width="292" height="162" rx="15" fill="white" fill-opacity="0.01"/>
<rect x="0.333984" width="342" height="190" rx="15" fill="#0E0A5F" fill-opacity="0.6"/>
<path d="M21.134 81.644L19.526 82.532V82.268L21.134 83.156L20.666 83.972L19.118 83.072L19.274 82.988L19.286 84.704H18.374L18.386 82.988L18.542 83.072L17.006 83.972L16.526 83.156L18.146 82.268V82.532L16.526 81.644L17.006 80.816L18.542 81.728L18.386 81.824L18.374 80.096H19.286L19.274 81.824L19.118 81.728L20.666 80.816L21.134 81.644ZM27.5605 81.644L25.9525 82.532V82.268L27.5605 83.156L27.0925 83.972L25.5445 83.072L25.7005 82.988L25.7125 84.704H24.8005L24.8125 82.988L24.9685 83.072L23.4325 83.972L22.9525 83.156L24.5725 82.268V82.532L22.9525 81.644L23.4325 80.816L24.9685 81.728L24.8125 81.824L24.8005 80.096H25.7125L25.7005 81.824L25.5445 81.728L27.0925 80.816L27.5605 81.644ZM33.9871 81.644L32.3791 82.532V82.268L33.9871 83.156L33.5191 83.972L31.9711 83.072L32.1271 82.988L32.1391 84.704H31.2271L31.2391 82.988L31.3951 83.072L29.8591 83.972L29.3791 83.156L30.9991 82.268V82.532L29.3791 81.644L29.8591 80.816L31.3951 81.728L31.2391 81.824L31.2271 80.096H32.1391L32.1271 81.824L31.9711 81.728L33.5191 80.816L33.9871 81.644ZM40.4137 81.644L38.8057 82.532V82.268L40.4137 83.156L39.9457 83.972L38.3977 83.072L38.5537 82.988L38.5657 84.704H37.6537L37.6657 82.988L37.8217 83.072L36.2857 83.972L35.8057 83.156L37.4257 82.268V82.532L35.8057 81.644L36.2857 80.816L37.8217 81.728L37.6657 81.824L37.6537 80.096H38.5657L38.5537 81.824L38.3977 81.728L39.9457 80.816L40.4137 81.644ZM55.6387 81.644L54.0307 82.532V82.268L55.6387 83.156L55.1707 83.972L53.6227 83.072L53.7787 82.988L53.7907 84.704H52.8787L52.8907 82.988L53.0467 83.072L51.5107 83.972L51.0307 83.156L52.6507 82.268V82.532L51.0307 81.644L51.5107 80.816L53.0467 81.728L52.8907 81.824L52.8787 80.096H53.7907L53.7787 81.824L53.6227 81.728L55.1707 80.816L55.6387 81.644ZM62.0652 81.644L60.4572 82.532V82.268L62.0652 83.156L61.5972 83.972L60.0492 83.072L60.2052 82.988L60.2172 84.704H59.3052L59.3172 82.988L59.4732 83.072L57.9372 83.972L57.4572 83.156L59.0772 82.268V82.532L57.4572 81.644L57.9372 80.816L59.4732 81.728L59.3172 81.824L59.3052 80.096H60.2172L60.2052 81.824L60.0492 81.728L61.5972 80.816L62.0652 81.644ZM68.4918 81.644L66.8838 82.532V82.268L68.4918 83.156L68.0238 83.972L66.4758 83.072L66.6318 82.988L66.6438 84.704H65.7318L65.7438 82.988L65.8998 83.072L64.3638 83.972L63.8838 83.156L65.5038 82.268V82.532L63.8838 81.644L64.3638 80.816L65.8998 81.728L65.7438 81.824L65.7318 80.096H66.6438L66.6318 81.824L66.4758 81.728L68.0238 80.816L68.4918 81.644ZM74.9184 81.644L73.3104 82.532V82.268L74.9184 83.156L74.4504 83.972L72.9024 83.072L73.0584 82.988L73.0704 84.704H72.1584L72.1704 82.988L72.3264 83.072L70.7904 83.972L70.3104 83.156L71.9304 82.268V82.532L70.3104 81.644L70.7904 80.816L72.3264 81.728L72.1704 81.824L72.1584 80.096H73.0704L73.0584 81.824L72.9024 81.728L74.4504 80.816L74.9184 81.644ZM90.1434 81.644L88.5354 82.532V82.268L90.1434 83.156L89.6754 83.972L88.1274 83.072L88.2834 82.988L88.2954 84.704H87.3834L87.3954 82.988L87.5514 83.072L86.0154 83.972L85.5354 83.156L87.1554 82.268V82.532L85.5354 81.644L86.0154 80.816L87.5514 81.728L87.3954 81.824L87.3834 80.096H88.2954L88.2834 81.824L88.1274 81.728L89.6754 80.816L90.1434 81.644ZM96.5699 81.644L94.9619 82.532V82.268L96.5699 83.156L96.1019 83.972L94.5539 83.072L94.7099 82.988L94.7219 84.704H93.8099L93.8219 82.988L93.9779 83.072L92.4419 83.972L91.9619 83.156L93.5819 82.268V82.532L91.9619 81.644L92.4419 80.816L93.9779 81.728L93.8219 81.824L93.8099 80.096H94.7219L94.7099 81.824L94.5539 81.728L96.1019 80.816L96.5699 81.644ZM102.996 81.644L101.388 82.532V82.268L102.996 83.156L102.528 83.972L100.98 83.072L101.136 82.988L101.148 84.704H100.236L100.248 82.988L100.404 83.072L98.8685 83.972L98.3885 83.156L100.008 82.268V82.532L98.3885 81.644L98.8685 80.816L100.404 81.728L100.248 81.824L100.236 80.096H101.148L101.136 81.824L100.98 81.728L102.528 80.816L102.996 81.644ZM109.423 81.644L107.815 82.532V82.268L109.423 83.156L108.955 83.972L107.407 83.072L107.563 82.988L107.575 84.704H106.663L106.675 82.988L106.831 83.072L105.295 83.972L104.815 83.156L106.435 82.268V82.532L104.815 81.644L105.295 80.816L106.831 81.728L106.675 81.824L106.663 80.096H107.575L107.563 81.824L107.407 81.728L108.955 80.816L109.423 81.644ZM124.648 81.644L123.04 82.532V82.268L124.648 83.156L124.18 83.972L122.632 83.072L122.788 82.988L122.8 84.704H121.888L121.9 82.988L122.056 83.072L120.52 83.972L120.04 83.156L121.66 82.268V82.532L120.04 81.644L120.52 80.816L122.056 81.728L121.9 81.824L121.888 80.096H122.8L122.788 81.824L122.632 81.728L124.18 80.816L124.648 81.644ZM131.075 81.644L129.467 82.532V82.268L131.075 83.156L130.607 83.972L129.059 83.072L129.215 82.988L129.227 84.704H128.315L128.327 82.988L128.483 83.072L126.947 83.972L126.467 83.156L128.087 82.268V82.532L126.467 81.644L126.947 80.816L128.483 81.728L128.327 81.824L128.315 80.096H129.227L129.215 81.824L129.059 81.728L130.607 80.816L131.075 81.644ZM137.501 81.644L135.893 82.532V82.268L137.501 83.156L137.033 83.972L135.485 83.072L135.641 82.988L135.653 84.704H134.741L134.753 82.988L134.909 83.072L133.373 83.972L132.893 83.156L134.513 82.268V82.532L132.893 81.644L133.373 80.816L134.909 81.728L134.753 81.824L134.741 80.096H135.653L135.641 81.824L135.485 81.728L137.033 80.816L137.501 81.644ZM143.928 81.644L142.32 82.532V82.268L143.928 83.156L143.46 83.972L141.912 83.072L142.068 82.988L142.08 84.704H141.168L141.18 82.988L141.336 83.072L139.8 83.972L139.32 83.156L140.94 82.268V82.532L139.32 81.644L139.8 80.816L141.336 81.728L141.18 81.824L141.168 80.096H142.08L142.068 81.824L141.912 81.728L143.46 80.816L143.928 81.644Z" fill="white"/>
<path d="M19.694 139.44V128.16H20.678V139.44H19.694ZM20.066 138.12C19.41 138.12 18.782 138.028 18.182 137.844C17.582 137.652 17.106 137.408 16.754 137.112L17.294 135.9C17.63 136.164 18.046 136.384 18.542 136.56C19.038 136.736 19.546 136.824 20.066 136.824C20.506 136.824 20.862 136.776 21.134 136.68C21.406 136.584 21.606 136.456 21.734 136.296C21.862 136.128 21.926 135.94 21.926 135.732C21.926 135.476 21.834 135.272 21.65 135.12C21.466 134.96 21.226 134.836 20.93 134.748C20.642 134.652 20.318 134.564 19.958 134.484C19.606 134.404 19.25 134.312 18.89 134.208C18.538 134.096 18.214 133.956 17.918 133.788C17.63 133.612 17.394 133.38 17.21 133.092C17.026 132.804 16.934 132.436 16.934 131.988C16.934 131.532 17.054 131.116 17.294 130.74C17.542 130.356 17.914 130.052 18.41 129.828C18.914 129.596 19.55 129.48 20.318 129.48C20.822 129.48 21.322 129.544 21.818 129.672C22.314 129.8 22.746 129.984 23.114 130.224L22.622 131.436C22.246 131.212 21.858 131.048 21.458 130.944C21.058 130.832 20.674 130.776 20.306 130.776C19.874 130.776 19.522 130.828 19.25 130.932C18.986 131.036 18.79 131.172 18.662 131.34C18.542 131.508 18.482 131.7 18.482 131.916C18.482 132.172 18.57 132.38 18.746 132.54C18.93 132.692 19.166 132.812 19.454 132.9C19.75 132.988 20.078 133.076 20.438 133.164C20.798 133.244 21.154 133.336 21.506 133.44C21.866 133.544 22.19 133.68 22.478 133.848C22.774 134.016 23.01 134.244 23.186 134.532C23.37 134.82 23.462 135.184 23.462 135.624C23.462 136.072 23.338 136.488 23.09 136.872C22.85 137.248 22.478 137.552 21.974 137.784C21.47 138.008 20.834 138.12 20.066 138.12ZM25.6357 138V130.2L26.3197 130.908H23.8597V129.6H27.1957V138H25.6357ZM32.366 138.12C31.702 138.12 31.102 137.952 30.566 137.616C30.038 137.28 29.622 136.792 29.318 136.152C29.014 135.504 28.862 134.72 28.862 133.8C28.862 132.88 29.014 132.1 29.318 131.46C29.622 130.812 30.038 130.32 30.566 129.984C31.102 129.648 31.702 129.48 32.366 129.48C33.038 129.48 33.638 129.648 34.166 129.984C34.694 130.32 35.11 130.812 35.414 131.46C35.726 132.1 35.882 132.88 35.882 133.8C35.882 134.72 35.726 135.504 35.414 136.152C35.11 136.792 34.694 137.28 34.166 137.616C33.638 137.952 33.038 138.12 32.366 138.12ZM32.366 136.764C32.758 136.764 33.098 136.66 33.386 136.452C33.674 136.236 33.898 135.908 34.058 135.468C34.226 135.028 34.31 134.472 34.31 133.8C34.31 133.12 34.226 132.564 34.058 132.132C33.898 131.692 33.674 131.368 33.386 131.16C33.098 130.944 32.758 130.836 32.366 130.836C31.99 130.836 31.654 130.944 31.358 131.16C31.07 131.368 30.842 131.692 30.674 132.132C30.514 132.564 30.434 133.12 30.434 133.8C30.434 134.472 30.514 135.028 30.674 135.468C30.842 135.908 31.07 136.236 31.358 136.452C31.654 136.66 31.99 136.764 32.366 136.764ZM40.4402 138.12C39.7762 138.12 39.1762 137.952 38.6402 137.616C38.1122 137.28 37.6962 136.792 37.3922 136.152C37.0882 135.504 36.9362 134.72 36.9362 133.8C36.9362 132.88 37.0882 132.1 37.3922 131.46C37.6962 130.812 38.1122 130.32 38.6402 129.984C39.1762 129.648 39.7762 129.48 40.4402 129.48C41.1122 129.48 41.7122 129.648 42.2402 129.984C42.7682 130.32 43.1842 130.812 43.4882 131.46C43.8002 132.1 43.9562 132.88 43.9562 133.8C43.9562 134.72 43.8002 135.504 43.4882 136.152C43.1842 136.792 42.7682 137.28 42.2402 137.616C41.7122 137.952 41.1122 138.12 40.4402 138.12ZM40.4402 136.764C40.8322 136.764 41.1722 136.66 41.4602 136.452C41.7482 136.236 41.9722 135.908 42.1322 135.468C42.3002 135.028 42.3842 134.472 42.3842 133.8C42.3842 133.12 42.3002 132.564 42.1322 132.132C41.9722 131.692 41.7482 131.368 41.4602 131.16C41.1722 130.944 40.8322 130.836 40.4402 130.836C40.0642 130.836 39.7282 130.944 39.4322 131.16C39.1442 131.368 38.9162 131.692 38.7482 132.132C38.5882 132.564 38.5082 133.12 38.5082 133.8C38.5082 134.472 38.5882 135.028 38.7482 135.468C38.9162 135.908 39.1442 136.236 39.4322 136.452C39.7282 136.66 40.0642 136.764 40.4402 136.764ZM48.5144 138.12C47.8504 138.12 47.2504 137.952 46.7144 137.616C46.1864 137.28 45.7704 136.792 45.4664 136.152C45.1624 135.504 45.0104 134.72 45.0104 133.8C45.0104 132.88 45.1624 132.1 45.4664 131.46C45.7704 130.812 46.1864 130.32 46.7144 129.984C47.2504 129.648 47.8504 129.48 48.5144 129.48C49.1864 129.48 49.7864 129.648 50.3144 129.984C50.8424 130.32 51.2584 130.812 51.5624 131.46C51.8744 132.1 52.0304 132.88 52.0304 133.8C52.0304 134.72 51.8744 135.504 51.5624 136.152C51.2584 136.792 50.8424 137.28 50.3144 137.616C49.7864 137.952 49.1864 138.12 48.5144 138.12ZM48.5144 136.764C48.9064 136.764 49.2464 136.66 49.5344 136.452C49.8224 136.236 50.0464 135.908 50.2064 135.468C50.3744 135.028 50.4584 134.472 50.4584 133.8C50.4584 133.12 50.3744 132.564 50.2064 132.132C50.0464 131.692 49.8224 131.368 49.5344 131.16C49.2464 130.944 48.9064 130.836 48.5144 130.836C48.1384 130.836 47.8024 130.944 47.5064 131.16C47.2184 131.368 46.9904 131.692 46.8224 132.132C46.6624 132.564 46.5824 133.12 46.5824 133.8C46.5824 134.472 46.6624 135.028 46.8224 135.468C46.9904 135.908 47.2184 136.236 47.5064 136.452C47.8024 136.66 48.1384 136.764 48.5144 136.764ZM59.905 138.12C59.241 138.12 58.641 137.952 58.105 137.616C57.577 137.28 57.161 136.792 56.857 136.152C56.553 135.504 56.401 134.72 56.401 133.8C56.401 132.88 56.553 132.1 56.857 131.46C57.161 130.812 57.577 130.32 58.105 129.984C58.641 129.648 59.241 129.48 59.905 129.48C60.577 129.48 61.177 129.648 61.705 129.984C62.233 130.32 62.649 130.812 62.953 131.46C63.265 132.1 63.421 132.88 63.421 133.8C63.421 134.72 63.265 135.504 62.953 136.152C62.649 136.792 62.233 137.28 61.705 137.616C61.177 137.952 60.577 138.12 59.905 138.12ZM59.905 136.764C60.297 136.764 60.637 136.66 60.925 136.452C61.213 136.236 61.437 135.908 61.597 135.468C61.765 135.028 61.849 134.472 61.849 133.8C61.849 133.12 61.765 132.564 61.597 132.132C61.437 131.692 61.213 131.368 60.925 131.16C60.637 130.944 60.297 130.836 59.905 130.836C59.529 130.836 59.193 130.944 58.897 131.16C58.609 131.368 58.381 131.692 58.213 132.132C58.053 132.564 57.973 133.12 57.973 133.8C57.973 134.472 58.053 135.028 58.213 135.468C58.381 135.908 58.609 136.236 58.897 136.452C59.193 136.66 59.529 136.764 59.905 136.764ZM67.9793 138.12C67.3153 138.12 66.7153 137.952 66.1793 137.616C65.6513 137.28 65.2353 136.792 64.9313 136.152C64.6273 135.504 64.4753 134.72 64.4753 133.8C64.4753 132.88 64.6273 132.1 64.9313 131.46C65.2353 130.812 65.6513 130.32 66.1793 129.984C66.7153 129.648 67.3153 129.48 67.9793 129.48C68.6513 129.48 69.2513 129.648 69.7793 129.984C70.3073 130.32 70.7233 130.812 71.0273 131.46C71.3393 132.1 71.4953 132.88 71.4953 133.8C71.4953 134.72 71.3393 135.504 71.0273 136.152C70.7233 136.792 70.3073 137.28 69.7793 137.616C69.2513 137.952 68.6513 138.12 67.9793 138.12ZM67.9793 136.764C68.3713 136.764 68.7113 136.66 68.9993 136.452C69.2873 136.236 69.5113 135.908 69.6713 135.468C69.8393 135.028 69.9233 134.472 69.9233 133.8C69.9233 133.12 69.8393 132.564 69.6713 132.132C69.5113 131.692 69.2873 131.368 68.9993 131.16C68.7113 130.944 68.3713 130.836 67.9793 130.836C67.6033 130.836 67.2673 130.944 66.9713 131.16C66.6833 131.368 66.4553 131.692 66.2873 132.132C66.1273 132.564 66.0473 133.12 66.0473 133.8C66.0473 134.472 66.1273 135.028 66.2873 135.468C66.4553 135.908 66.6833 136.236 66.9713 136.452C67.2673 136.66 67.6033 136.764 67.9793 136.764ZM76.0535 138.12C75.3895 138.12 74.7895 137.952 74.2535 137.616C73.7255 137.28 73.3095 136.792 73.0055 136.152C72.7015 135.504 72.5495 134.72 72.5495 133.8C72.5495 132.88 72.7015 132.1 73.0055 131.46C73.3095 130.812 73.7255 130.32 74.2535 129.984C74.7895 129.648 75.3895 129.48 76.0535 129.48C76.7255 129.48 77.3255 129.648 77.8535 129.984C78.3815 130.32 78.7975 130.812 79.1015 131.46C79.4135 132.1 79.5695 132.88 79.5695 133.8C79.5695 134.72 79.4135 135.504 79.1015 136.152C78.7975 136.792 78.3815 137.28 77.8535 137.616C77.3255 137.952 76.7255 138.12 76.0535 138.12ZM76.0535 136.764C76.4455 136.764 76.7855 136.66 77.0735 136.452C77.3615 136.236 77.5855 135.908 77.7455 135.468C77.9135 135.028 77.9975 134.472 77.9975 133.8C77.9975 133.12 77.9135 132.564 77.7455 132.132C77.5855 131.692 77.3615 131.368 77.0735 131.16C76.7855 130.944 76.4455 130.836 76.0535 130.836C75.6775 130.836 75.3415 130.944 75.0455 131.16C74.7575 131.368 74.5295 131.692 74.3615 132.132C74.2015 132.564 74.1215 133.12 74.1215 133.8C74.1215 134.472 74.2015 135.028 74.3615 135.468C74.5295 135.908 74.7575 136.236 75.0455 136.452C75.3415 136.66 75.6775 136.764 76.0535 136.764ZM84.5401 138V129.6H86.1001V136.68H90.4921V138H84.5401ZM91.7237 138V129.6H93.2837V138H91.7237ZM95.5557 138V129.6H96.8397L100.512 135.732H99.8397L103.452 129.6H104.736L104.748 138H103.272L103.26 131.916H103.572L100.5 137.04H99.8037L96.6837 131.916H97.0437V138H95.5557ZM107.017 138V129.6H108.577V138H107.017ZM112.553 138V130.92H109.769V129.6H116.897V130.92H114.113V138H112.553Z" fill="white"/>
<path d="M218.238 134.5V129.1H219.522V134.5H218.238ZM216.114 132.4V131.2H221.646V132.4H216.114Z" fill="white"/>
<path opacity="0.9" d="M216.945 117L213.845 110H214.645L217.545 116.59H217.105L220.025 110H220.775L217.675 117H216.945ZM220.457 117L223.657 110H224.387L227.587 117H226.807L223.867 110.43H224.167L221.227 117H220.457ZM221.717 115.13L221.937 114.53H226.007L226.227 115.13H221.717ZM228.744 117V110H229.484V116.36H233.404V117H228.744ZM234.633 117V110H235.373V117H234.633ZM237.651 117V110H240.501C241.247 110 241.901 110.15 242.461 110.45C243.027 110.743 243.467 111.153 243.781 111.68C244.094 112.207 244.251 112.813 244.251 113.5C244.251 114.187 244.094 114.793 243.781 115.32C243.467 115.847 243.027 116.26 242.461 116.56C241.901 116.853 241.247 117 240.501 117H237.651ZM238.391 116.36H240.461C241.081 116.36 241.617 116.24 242.071 116C242.531 115.753 242.887 115.417 243.141 114.99C243.394 114.557 243.521 114.06 243.521 113.5C243.521 112.933 243.394 112.437 243.141 112.01C242.887 111.583 242.531 111.25 242.071 111.01C241.617 110.763 241.081 110.64 240.461 110.64H238.391V116.36ZM249.89 117V110.64H247.43V110H253.09V110.64H250.63V117H249.89ZM254.272 117V110H255.012V117H254.272ZM257.289 117V110H258.029V116.36H261.949V117H257.289ZM263.178 117V110H263.918V116.36H267.838V117H263.178Z" fill="white"/>
<g clip-path="url(#clip1_355_10696)">
<circle cx="26.334" cy="31.9607" r="10" fill="#EB001B"/>
<circle cx="38.334" cy="31.9607" r="10" fill="#F79E1B"/>
<path fill-rule="evenodd" clip-rule="evenodd" d="M32.3336 39.9607C35.0941 38.3638 36.9513 35.3791 36.9513 31.9607C36.9513 28.5422 35.0941 25.5576 32.3336 23.9607C29.5731 25.5576 27.7158 28.5422 27.7158 31.9607C27.7158 35.3791 29.5731 38.3638 32.3336 39.9607Z" fill="#FF5F00"/>
</g>
<g clip-path="url(#clip2_355_10696)">
<path d="M238.334 131C236.848 131 235.862 132.113 235.334 132.941C234.805 132.113 233.82 131 232.334 131C231.538 131 230.775 131.316 230.213 131.879C229.65 132.441 229.334 133.204 229.334 134C229.334 134.796 229.65 135.559 230.213 136.121C230.775 136.684 231.538 137 232.334 137C233.82 137 234.805 135.886 235.334 135.059C235.862 135.886 236.848 137 238.334 137C239.13 137 239.893 136.684 240.455 136.121C241.018 135.559 241.334 134.796 241.334 134C241.334 133.204 241.018 132.441 240.455 131.879C239.893 131.316 239.13 131 238.334 131ZM232.334 136C231.804 136 231.295 135.789 230.92 135.414C230.545 135.039 230.334 134.53 230.334 134C230.334 133.47 230.545 132.961 230.92 132.586C231.295 132.211 231.804 132 232.334 132C233.68 132 234.525 133.473 234.784 134C234.527 134.53 233.688 136 232.334 136ZM238.334 136C236.987 136 236.143 134.527 235.884 134C236.141 133.471 236.98 132 238.334 132C238.864 132 239.373 132.211 239.748 132.586C240.123 132.961 240.334 133.47 240.334 134C240.334 134.53 240.123 135.039 239.748 135.414C239.373 135.789 238.864 136 238.334 136Z" fill="white"/>
</g>
</g>
</g>
<defs>
<filter id="filter0_b_355_10696" x="-10.666" y="-11" width="314" height="184" filterUnits="userSpaceOnUse" color-interpolation-filters="sRGB">
<feFlood flood-opacity="0" result="BackgroundImageFix"/>
<feGaussianBlur in="BackgroundImageFix" stdDeviation="5.5"/>
<feComposite in2="SourceAlpha" operator="in" result="effect1_backgroundBlur_355_10696"/>
<feBlend mode="normal" in="SourceGraphic" in2="effect1_backgroundBlur_355_10696" result="shape"/>
</filter>
<clipPath id="clip0_355_10696">
<rect x="0.333984" width="292" height="162" rx="15" fill="white"/>
</clipPath>
<clipPath id="clip1_355_10696">
<rect width="32" height="32" fill="white" transform="translate(16.334 16)"/>
</clipPath>
<clipPath id="clip2_355_10696">
<rect width="12" height="12" fill="white" transform="translate(229.334 128)"/>
</clipPath>
</defs>
</svg>
