<svg width="33" height="32" viewBox="0 0 33 32" fill="none" xmlns="http://www.w3.org/2000/svg">
<path d="M23.0134 2.62061H9.91006C6.29168 2.62061 3.3584 5.55388 3.3584 9.17226V22.2756C3.3584 25.894 6.29168 28.8272 9.91006 28.8272H23.0134C26.6318 28.8272 29.565 25.894 29.565 22.2756V9.17226C29.565 5.55388 26.6318 2.62061 23.0134 2.62061Z" stroke="white" stroke-width="1.25792" stroke-linecap="round" stroke-linejoin="round"/>
<path d="M21.7023 14.8983C21.864 15.9888 21.6778 17.1026 21.17 18.0811C20.6623 19.0597 19.8589 19.8532 18.8741 20.3489C17.8894 20.8445 16.7735 21.017 15.685 20.8419C14.5966 20.6667 13.5911 20.1528 12.8115 19.3733C12.032 18.5937 11.5181 17.5882 11.3429 16.4998C11.1678 15.4114 11.3403 14.2954 11.836 13.3107C12.3316 12.3259 13.1251 11.5225 14.1037 11.0148C15.0823 10.507 16.196 10.3208 17.2865 10.4825C18.3989 10.6474 19.4287 11.1658 20.2239 11.9609C21.019 12.7561 21.5374 13.7859 21.7023 14.8983Z" stroke="white" stroke-width="1.25792" stroke-linecap="round" stroke-linejoin="round"/>
<path d="M23.668 8.51709H23.6821" stroke="white" stroke-width="1.25792" stroke-linecap="round" stroke-linejoin="round"/>
</svg>
