<svg xmlns="http://www.w3.org/2000/svg" width="29" height="30" viewBox="0 0 29 30" fill="none">
  <g clip-path="url(#clip0_3_12966)">
    <path d="M16.4744 18.45V4.375C16.4744 3.5462 16.1644 2.75134 15.6127 2.16529C15.061 1.57924 14.3128 1.25 13.5326 1.25C12.7523 1.25 12.0041 1.57924 11.4524 2.16529C10.9007 2.75134 10.5908 3.5462 10.5908 4.375V18.45C9.64617 19.1204 8.9296 20.0958 8.54687 21.232C8.16414 22.3682 8.13554 23.6051 8.4653 24.7599C8.79507 25.9147 9.4657 26.9262 10.3782 27.6451C11.2906 28.364 12.3965 28.7521 13.5326 28.7521C14.6686 28.7521 15.7745 28.364 16.687 27.6451C17.5994 26.9262 18.2701 25.9147 18.5998 24.7599C18.9296 23.6051 18.901 22.3682 18.5183 21.232C18.1355 20.0958 17.419 19.1204 16.4744 18.45Z" stroke="white" stroke-width="2.99376" stroke-linecap="round" stroke-linejoin="round"/>
  </g>
  <defs>
    <clipPath id="clip0_3_12966">
      <rect width="28.2414" height="30" fill="white"/>
    </clipPath>
  </defs>
</svg>