<svg width="32" height="32" viewBox="0 0 32 32" fill="none" xmlns="http://www.w3.org/2000/svg">
<g clip-path="url(#clip0_3_12808)">
<path d="M30.6125 3.93115C29.3577 4.81624 27.9683 5.4932 26.498 5.93595C25.7089 5.02856 24.6601 4.38543 23.4935 4.09353C22.3269 3.80163 21.0988 3.87506 19.9753 4.30387C18.8518 4.73269 17.8871 5.49621 17.2117 6.49116C16.5362 7.48612 16.1827 8.6645 16.1988 9.86695V11.1773C13.8961 11.237 11.6143 10.7263 9.55675 9.69064C7.49918 8.655 5.72967 7.12657 4.40582 5.24148C4.40582 5.24148 -0.835507 17.0345 10.9575 22.2758C8.25889 24.1076 5.04416 25.0261 1.78516 24.8965C13.5781 31.4481 27.9918 24.8965 27.9918 9.82764C27.9906 9.46265 27.9555 9.09856 27.887 8.74006C29.2243 7.42121 30.168 5.75606 30.6125 3.93115V3.93115Z" stroke="white" stroke-width="1.25792" stroke-linecap="round" stroke-linejoin="round"/>
</g>
<defs>
<clipPath id="clip0_3_12808">
<rect width="31.448" height="31.448" fill="white" transform="translate(0.474609)"/>
</clipPath>
</defs>
</svg>
