<svg width="32" height="32" viewBox="0 0 32 32" fill="none" xmlns="http://www.w3.org/2000/svg">
<path d="M29.5349 8.41221C29.3792 7.79034 29.0622 7.22056 28.6159 6.76042C28.1695 6.30027 27.6097 5.96607 26.9928 5.79155C24.7391 5.24121 15.724 5.24121 15.724 5.24121C15.724 5.24121 6.70889 5.24121 4.45512 5.84396C3.83827 6.01848 3.27841 6.35269 2.83207 6.81283C2.38573 7.27297 2.06872 7.84276 1.91307 8.46463C1.5006 10.7519 1.29884 13.0722 1.31032 15.3963C1.29562 17.7379 1.49739 20.0759 1.91307 22.3803C2.08467 22.9829 2.40878 23.531 2.85408 23.9717C3.29938 24.4124 3.85082 24.7308 4.45512 24.8962C6.70889 25.4989 15.724 25.4989 15.724 25.4989C15.724 25.4989 24.7391 25.4989 26.9928 24.8962C27.6097 24.7217 28.1695 24.3875 28.6159 23.9273C29.0622 23.4672 29.3792 22.8974 29.5349 22.2755C29.9442 20.0055 30.1459 17.7029 30.1376 15.3963C30.1523 13.0547 29.9505 10.7167 29.5349 8.41221V8.41221Z" stroke="white" stroke-width="1.25792" stroke-linecap="round" stroke-linejoin="round"/>
<path d="M12.7754 19.6809L20.3098 15.3961L12.7754 11.1113V19.6809Z" stroke="white" stroke-width="1.25792" stroke-linecap="round" stroke-linejoin="round"/>
</svg>
